<?xml version="1.0" encoding="UTF-8"?><svg xmlns="http://www.w3.org/2000/svg" xmlns:xlink="http://www.w3.org/1999/xlink" height="37.0" preserveAspectRatio="xMidYMid meet" version="1.0" viewBox="5.9 6.0 36.1 37.0" width="36.1" zoomAndPan="magnify"><g><path d="M0,0H48V48H0Z" fill="none"/><g id="change1_1"><path d="M24,43a1.983,1.983,0,0,1-.632-.1l-12-4a2,2,0,0,1-1.349-1.624l-4-29A2,2,0,0,1,8,6H40a2,2,0,0,1,1.981,2.273l-4,29A2,2,0,0,1,36.632,38.9l-12,4A1.983,1.983,0,0,1,24,43ZM13.812,35.5,24,38.892l10.188-3.4L37.705,10H10.3Z"/></g><g id="change1_2"><path d="M24,34.5a2.011,2.011,0,0,1-.575-.084l-5-1.5a2,2,0,0,1-1.386-1.523l-.2-1a2,2,0,0,1,3.877-.966L24,30.412l3.2-.96L27.694,26H22a2,2,0,0,1-1.329-3.5L25.74,18H17a2,2,0,0,1,0-4H31a2,2,0,0,1,1.329,3.5L27.26,22H30a2,2,0,0,1,1.98,2.283l-1,7a2,2,0,0,1-1.405,1.633l-5,1.5A2.011,2.011,0,0,1,24,34.5Z"/></g></g></svg>