<?xml version="1.0" encoding="UTF-8"?><!DOCTYPE svg PUBLIC "-//W3C//DTD SVG 1.0//EN" "http://www.w3.org/TR/2001/REC-SVG-20010904/DTD/svg10.dtd" []><svg xmlns="http://www.w3.org/2000/svg" xmlns:xlink="http://www.w3.org/1999/xlink" data-name="Layer 1" height="153" preserveAspectRatio="xMidYMid meet" version="1.0" viewBox="0.0 -0.1 626.0 152.8" width="626" zoomAndPan="magnify"><g id="change1_1"><path d="M617.15,142.99c1.55.02,2.82-1.23,2.84-2.78,0-.06,0-.13,0-.19,0-2.11-1.27-3.11-3.88-3.11h-4.21v11.03h1.58v-4.81h1.95l.04.06,3.02,4.75h1.69l-3.25-4.91.22-.03ZM615.32,141.89h-1.84v-3.73h2.33c1.2,0,2.57.2,2.57,1.77,0,1.81-1.39,1.96-3.07,1.96" data-name="Path 2525" fill="#0a66c2"/></g><g id="change1_2"><path d="M0,22.43h23.38v85.17h43.29v21.58H0V22.43Z" data-name="Path 2514" fill="#0a66c2"/></g><g id="change1_3"><path d="M77.01,56.81h22.46v72.34h-22.46V56.81ZM88.24,20.84c7.2,0,13.03,5.84,13.03,13.03s-5.84,13.03-13.03,13.03c-7.2,0-13.03-5.84-13.03-13.03s5.83-13.03,13.03-13.03h0" data-name="Path 2515" fill="#0a66c2"/></g><g id="change1_4"><path d="M193.44,22.42h22.46v63.8l25.46-29.44h27.54l-29.48,33.49,28.86,38.91h-28.23l-23.85-35.76h-.29v35.75h-22.46V22.42Z" data-name="Path 2516" fill="#0a66c2"/></g><g id="change1_5"><path d="M111.93,56.81h21.57v9.89h.31c4.39-7.52,12.57-12.01,21.27-11.69,22.78,0,26.97,14.99,26.97,34.46v39.67h-22.46v-35.17c0-8.4-.15-19.19-11.7-19.19s-13.48,9.14-13.48,18.58v35.77h-22.46l-.02-72.32Z" data-name="Path 2517" fill="#0a66c2"/></g><g id="change1_6"><path d="M316.21,84.56c.18-7.44-5.71-13.61-13.15-13.78-.21,0-.43,0-.64,0-8.17-.51-15.23,5.63-15.87,13.78h29.67ZM335.24,116.62c-7.56,9.17-18.84,14.45-30.72,14.39-22.46,0-40.45-14.99-40.45-38.21s17.98-38.21,40.45-38.21c21,0,34.16,14.98,34.16,38.21v7.04h-52.14c1.34,8.26,8.56,14.27,16.93,14.08,6.5-.04,12.53-3.37,16.03-8.84l15.73,11.53Z" data-name="Path 2518" fill="#0a66c2"/></g><g id="change1_7"><path d="M385.51,74.29c-11.23,0-17.97,7.5-17.97,18.43s6.74,18.43,17.97,18.43,17.99-7.49,17.99-18.43-6.74-18.43-17.99-18.43M424.18,129.13h-20.68v-9.59h-.31c-5.26,7.07-13.52,11.29-22.33,11.39-21.58,0-35.8-15.58-35.8-37.61,0-20.23,12.58-38.81,33.26-38.81,9.3,0,17.98,2.54,23.07,9.59h.29V22.41h22.48v106.72Z" data-name="Path 2519" fill="#0a66c2"/></g><g id="change1_8"><path d="M575.83,129.18h-22.46v-35.18c0-8.39-.15-19.19-11.68-19.19s-13.49,9.14-13.49,18.58v35.79h-22.46V56.83h21.57v9.89h.3c4.4-7.52,12.57-12.01,21.28-11.69,22.77,0,26.97,14.98,26.97,34.46v39.69ZM480.38,46.94c-7.2,0-13.04-5.83-13.04-13.03s5.83-13.04,13.03-13.04c7.2,0,13.04,5.83,13.04,13.03s-5.83,13.04-13.03,13.04h0M491.61,129.18h-22.49V56.83h22.49v72.34ZM587.03.01h-129.19c-6.11-.07-11.11,4.82-11.19,10.93v129.72c.07,6.11,5.08,11,11.19,10.94h129.19c6.12.08,11.15-4.82,11.23-10.94V10.93c-.09-6.12-5.11-11.01-11.23-10.93" data-name="Path 2520" fill="#0a66c2"/></g><g id="change1_9"><path d="M615.51,132c-5.71.05-10.29,4.73-10.24,10.44.06,5.71,4.73,10.29,10.44,10.24,5.71-.05,10.29-4.73,10.24-10.44-.05-5.63-4.61-10.18-10.24-10.24h-.2M615.51,151.49c-5.01.08-9.13-3.91-9.21-8.91s3.91-9.13,8.91-9.21c5.01-.08,9.13,3.91,9.21,8.91v.15c.1,4.9-3.78,8.95-8.68,9.06h-.23" data-name="Path 2526" fill="#0a66c2"/></g></svg>