<?xml version="1.0" encoding="UTF-8"?><svg xmlns="http://www.w3.org/2000/svg" xmlns:xlink="http://www.w3.org/1999/xlink" height="226.2" preserveAspectRatio="xMidYMid meet" version="1.0" viewBox="-0.0 0.0 5.8 226.2" width="5.8" zoomAndPan="magnify"><g id="change1_1"><path d="M5.826,226.235H0V0h4.102L5.826,226.235z" fill="#A1D783"/></g><g id="change2_1"><path d="M3.528,69.742c0.042,0.047,0.085,0.095,0.127,0.142c-0.047,0.042-0.095,0.085-0.142,0.127 c-0.042-0.047-0.12-0.096-0.117-0.141S3.481,69.784,3.528,69.742z M3.647,129.608c0.003-0.045-0.075-0.094-0.117-0.141 c-0.047,0.042-0.13,0.083-0.132,0.128c-0.002,0.045,0.075,0.094,0.117,0.141C3.562,129.694,3.644,129.653,3.647,129.608z M3.125,143.399c0.047-0.042,0.129-0.083,0.132-0.128c0.002-0.045-0.075-0.094-0.117-0.141c-0.047,0.043-0.13,0.083-0.132,0.128 C3.005,143.303,3.082,143.352,3.125,143.399z M3.527,125.964c-0.045-0.002-0.094,0.075-0.141,0.118 c0.042,0.047,0.085,0.094,0.127,0.142c0.047-0.042,0.095-0.085,0.142-0.127C3.613,126.049,3.573,125.967,3.527,125.964z M3.123,137.544c0.047-0.042,0.095-0.085,0.142-0.127c-0.042-0.047-0.083-0.129-0.128-0.132c-0.045-0.003-0.129,0.073-0.131,0.118 C3.003,137.448,3.081,137.496,3.123,137.544z M3.074,128.491c-0.091,0.091-0.182,0.183-0.272,0.275 c0.139,0.047,0.278,0.094,0.417,0.142C3.171,128.769,3.122,128.63,3.074,128.491z M3.139,120.489 c-0.047,0.042-0.13,0.083-0.132,0.128c-0.002,0.045,0.075,0.094,0.117,0.141c0.047-0.042,0.129-0.083,0.132-0.128 C3.259,120.585,3.181,120.536,3.139,120.489z M2.617,118.665c-0.002,0.045,0.075,0.094,0.117,0.141 c0.047-0.042,0.129-0.083,0.132-0.128c0.003-0.045-0.075-0.094-0.118-0.141C2.701,118.579,2.619,118.62,2.617,118.665z M3.397,108.125c-0.002,0.045,0.075,0.094,0.117,0.141c0.047-0.042,0.129-0.083,0.132-0.128c0.003-0.045-0.075-0.094-0.117-0.141 C3.482,108.039,3.4,108.08,3.397,108.125z M3.007,126.862c-0.002,0.045,0.075,0.094,0.117,0.141 c0.047-0.042,0.129-0.083,0.132-0.128c0.002-0.045-0.075-0.094-0.118-0.141C3.092,126.777,3.009,126.818,3.007,126.862z M2.802,128.766c0.09-0.092,0.181-0.184,0.272-0.275c-0.14-0.048-0.28-0.097-0.421-0.145L2.802,128.766z M2.616,107.345 c-0.003,0.045,0.075,0.094,0.117,0.141c0.047-0.043,0.095-0.085,0.142-0.127c-0.042-0.047-0.085-0.095-0.127-0.142 C2.7,107.26,2.618,107.3,2.616,107.345z M3.007,108.906c-0.002,0.045,0.075,0.094,0.117,0.141c0.047-0.042,0.129-0.083,0.132-0.128 c0.002-0.045-0.075-0.094-0.118-0.141C3.092,108.82,3.009,108.861,3.007,108.906z M3.217,105.312l-0.42,0.149l0,0 c-0.047,0.139-0.095,0.278-0.142,0.417c0.139-0.048,0.278-0.097,0.417-0.145L3.217,105.312z M2.768,113.352 c0.17-0.17,0.339-0.34,0.509-0.511c-0.199-0.12-0.398-0.239-0.597-0.359l0,0c-0.139-0.047-0.278-0.094-0.417-0.142 c0.049,0.139,0.097,0.278,0.145,0.416C2.528,112.955,2.648,113.154,2.768,113.352z M3.466,117.83 c-0.092-0.09-0.184-0.181-0.275-0.272c-0.174,0.135-0.348,0.27-0.522,0.405C2.934,117.919,3.2,117.875,3.466,117.83z M3.465,117.83 c0.047-0.139,0.094-0.278,0.142-0.417c-0.139,0.048-0.278,0.097-0.416,0.145C3.282,117.65,3.374,117.74,3.465,117.83z M3.265,115.167c-0.042-0.047-0.085-0.095-0.127-0.142c-0.047,0.042-0.129,0.083-0.132,0.128c-0.002,0.045,0.075,0.094,0.117,0.141 C3.171,115.251,3.218,115.209,3.265,115.167z M2.996,112.028c0.042,0.047,0.085,0.095,0.127,0.142 c0.047-0.042,0.095-0.085,0.142-0.127c-0.042-0.047-0.083-0.129-0.128-0.132C3.092,111.908,3.043,111.986,2.996,112.028z M3.139,109.601c-0.064,0.094-0.177,0.187-0.179,0.283c-0.002,0.097,0.104,0.196,0.163,0.295c0.066-0.093,0.132-0.185,0.201-0.282 C3.261,109.796,3.2,109.699,3.139,109.601z M4.177,162.387c-0.003,0.045,0.075,0.094,0.117,0.141 c0.047-0.042,0.095-0.085,0.142-0.127c-0.042-0.047-0.085-0.095-0.127-0.142C4.262,162.302,4.18,162.343,4.177,162.387z M4.294,187.512c0.047-0.042,0.095-0.085,0.142-0.127c-0.042-0.047-0.085-0.095-0.127-0.142c-0.047,0.042-0.129,0.083-0.132,0.128 C4.174,187.416,4.252,187.465,4.294,187.512z M4.296,177.743c0.045,0.002,0.094-0.075,0.141-0.117 c-0.042-0.047-0.083-0.13-0.128-0.132c-0.045-0.002-0.094,0.075-0.141,0.118C4.211,177.659,4.251,177.741,4.296,177.743z M4.309,178.265c-0.047,0.042-0.129,0.083-0.132,0.128c-0.003,0.045,0.075,0.094,0.117,0.141l0.142-0.128L4.309,178.265z M4.564,186.427c-0.099-0.009-0.207,0.073-0.31,0.117c0.059,0.078,0.111,0.213,0.178,0.221c0.099,0.011,0.209-0.067,0.325-0.112 C4.688,186.567,4.632,186.433,4.564,186.427z M3.237,201.048c-0.103-0.068-0.197-0.178-0.293-0.18 c-0.098-0.001-0.197,0.105-0.295,0.164c0.094,0.064,0.187,0.176,0.283,0.179C3.029,201.215,3.129,201.11,3.237,201.048z M1.952,199.613c0.047-0.042,0.095-0.085,0.142-0.127c-0.043-0.047-0.083-0.129-0.128-0.132c-0.045-0.003-0.129,0.073-0.131,0.118 S1.91,199.565,1.952,199.613z M1.954,191.016c0.045,0.002,0.094-0.075,0.141-0.117c-0.042-0.047-0.083-0.13-0.128-0.132 c-0.045-0.002-0.094,0.075-0.141,0.117C1.868,190.931,1.909,191.014,1.954,191.016z M2.691,129.943 c-0.045,0.104-0.128,0.21-0.12,0.31c0.005,0.066,0.141,0.122,0.218,0.182c0.048-0.102,0.095-0.204,0.144-0.31 C2.848,130.061,2.77,130.002,2.691,129.943z M2.344,197.262c0.045,0.002,0.094-0.075,0.141-0.118 c-0.042-0.047-0.083-0.13-0.128-0.132c-0.045-0.002-0.094,0.075-0.141,0.117C2.259,197.177,2.299,197.259,2.344,197.262z M4.363,184.198c0.09-0.092,0.181-0.184,0.272-0.275c-0.135-0.174-0.27-0.348-0.405-0.522 C4.274,183.667,4.319,183.933,4.363,184.198z M2.748,138.847c-0.045-0.002-0.094,0.075-0.141,0.117 c0.043,0.047,0.083,0.129,0.128,0.132c0.045,0.002,0.094-0.075,0.141-0.118C2.834,138.932,2.793,138.85,2.748,138.847z M1.835,190.104c-0.003,0.045,0.075,0.094,0.117,0.141l0.142-0.127l-0.127-0.142C1.919,190.018,1.837,190.059,1.835,190.104z M3.07,148.396c-0.139-0.047-0.278-0.094-0.417-0.142c0.048,0.139,0.097,0.278,0.145,0.417c0.33,0.088,0.658,0.182,0.992,0.253 c0.02,0.004,0.078-0.171,0.118-0.263C3.628,148.573,3.349,148.484,3.07,148.396L3.07,148.396z M2.616,140.527 c-0.003,0.045,0.075,0.094,0.117,0.141l0.142-0.127c-0.042-0.047-0.085-0.095-0.127-0.142C2.7,140.441,2.618,140.482,2.616,140.527z M4.428,168.255c0.003-0.045-0.075-0.094-0.117-0.141c-0.047,0.042-0.13,0.083-0.132,0.128c-0.002,0.045,0.075,0.094,0.117,0.142 C4.343,168.341,4.425,168.3,4.428,168.255z M3.817,156.921c0.093,0.066,0.185,0.132,0.281,0.201 c0.101-0.063,0.199-0.124,0.296-0.185c-0.094-0.064-0.187-0.177-0.283-0.179C4.015,156.755,3.915,156.862,3.817,156.921z M4.781,184.34c-0.048-0.139-0.097-0.278-0.145-0.417c-0.091,0.091-0.182,0.183-0.271,0.275 C4.503,184.245,4.642,184.293,4.781,184.34z M1.9,131.497c0.048-0.14,0.097-0.281,0.145-0.421l-0.42,0.149l0,0 c-0.047,0.139-0.095,0.278-0.142,0.417C1.623,131.594,1.762,131.545,1.9,131.497z M4.428,144.443 c0.002-0.045-0.075-0.094-0.117-0.141c-0.047,0.042-0.13,0.083-0.132,0.128c-0.002,0.045,0.075,0.094,0.117,0.141 C4.343,144.528,4.425,144.488,4.428,144.443z M1.173,204.688c0.047-0.042,0.129-0.083,0.132-0.128 c0.003-0.045-0.075-0.094-0.117-0.141c-0.047,0.042-0.13,0.083-0.132,0.128C1.053,204.591,1.13,204.64,1.173,204.688z M1.171,218.35 c0.047-0.042,0.095-0.085,0.142-0.127c-0.043-0.047-0.083-0.129-0.128-0.132c-0.045-0.003-0.129,0.073-0.131,0.118 C1.052,218.254,1.129,218.303,1.171,218.35z M1.914,209.754c-0.256-0.152-0.398-0.236-0.539-0.32 c-0.073,0.13-0.19,0.257-0.202,0.393c-0.006,0.07,0.183,0.229,0.268,0.219C1.57,210.031,1.687,209.903,1.914,209.754z M1.953,218.351c0.047-0.042,0.129-0.083,0.132-0.128c0.002-0.045-0.075-0.094-0.117-0.141c-0.047,0.042-0.13,0.083-0.132,0.128 C1.834,218.254,1.911,218.303,1.953,218.351z M1.655,202.904c-0.139,0.048-0.278,0.097-0.417,0.145 c0.091,0.091,0.183,0.182,0.275,0.272C1.561,203.182,1.608,203.043,1.655,202.904z M2.094,130.391 c-0.042-0.047-0.085-0.094-0.127-0.142c-0.047,0.042-0.129,0.083-0.132,0.128c-0.003,0.045,0.075,0.094,0.118,0.141 C2,130.476,2.047,130.434,2.094,130.391z M1.305,199.485c0.003-0.045-0.075-0.094-0.117-0.141c-0.047,0.043-0.13,0.083-0.132,0.128 c-0.002,0.045,0.075,0.094,0.117,0.141C1.22,199.57,1.302,199.53,1.305,199.485z M1.967,206.381 c-0.045-0.002-0.094,0.075-0.141,0.117c0.042,0.047,0.083,0.129,0.128,0.132c0.045,0.003,0.094-0.075,0.141-0.117 C2.053,206.466,2.012,206.384,1.967,206.381z M1.514,203.321c-0.092-0.09-0.184-0.181-0.275-0.272 c-0.043,0.266-0.087,0.531-0.13,0.797C1.244,203.672,1.379,203.497,1.514,203.321z M4.247,204.106 c-0.001-0.222-0.001-0.444-0.002-0.666c-0.129-0.13-0.259-0.26-0.388-0.39c-0.138-0.052-0.276-0.105-0.415-0.157 c0.04,0.14,0.081,0.28,0.121,0.42h0c0,0,0.004,0.135,0.004,0.135c-0.127,0.35-0.253,0.699-0.38,1.048h0 c0.222,0,0.444,0.001,0.666,0.001L4.247,204.106z M2.344,208.201c0.047-0.042,0.129-0.083,0.132-0.128 c0.003-0.045-0.075-0.094-0.117-0.141c-0.047,0.042-0.13,0.083-0.132,0.128C2.224,208.104,2.301,208.154,2.344,208.201z M1.576,200.134c-0.045-0.003-0.129,0.073-0.131,0.118c-0.003,0.045,0.075,0.094,0.117,0.141c0.047-0.042,0.095-0.085,0.142-0.127 C1.661,200.219,1.621,200.137,1.576,200.134z M3.003,207.117c-0.099-0.009-0.207,0.073-0.31,0.117 c0.059,0.078,0.111,0.213,0.178,0.221c0.099,0.011,0.208-0.067,0.325-0.112C3.127,207.256,3.07,207.123,3.003,207.117z M1.967,203.649c-0.045-0.002-0.094,0.075-0.141,0.117c0.042,0.047,0.083,0.13,0.128,0.132c0.045,0.003,0.094-0.075,0.141-0.118 C2.053,203.733,2.012,203.651,1.967,203.649z M4.699,185.292c-0.047,0.042-0.129,0.083-0.132,0.128 c-0.003,0.045,0.075,0.094,0.117,0.141c0.047-0.042,0.094-0.085,0.142-0.127C4.784,185.386,4.742,185.339,4.699,185.292z M2.152,198.113c0.046,0.046,0.093,0.092,0.139,0.137c0.048-0.14,0.097-0.281,0.145-0.421l-0.42,0.149l0,0 c-0.047,0.139-0.094,0.278-0.142,0.417c0.139-0.049,0.278-0.097,0.417-0.146C2.245,198.204,2.198,198.159,2.152,198.113z M2.344,204.679c0.045,0.003,0.094-0.075,0.141-0.117c-0.042-0.047-0.083-0.13-0.128-0.132c-0.045-0.002-0.094,0.075-0.141,0.117 C2.259,204.594,2.299,204.676,2.344,204.679z M2.343,205.469c0.047-0.042,0.094-0.085,0.142-0.127 c-0.042-0.047-0.085-0.095-0.127-0.142c-0.047,0.042-0.129,0.083-0.132,0.128C2.223,205.373,2.3,205.422,2.343,205.469z M1.704,197.144c-0.042-0.047-0.085-0.094-0.127-0.142c-0.047,0.042-0.129,0.083-0.132,0.128c-0.003,0.045,0.075,0.094,0.117,0.141 C1.609,197.229,1.656,197.187,1.704,197.144z M2.476,111.651c0.002-0.045-0.075-0.094-0.118-0.141 c-0.047,0.043-0.13,0.083-0.132,0.128c-0.002,0.045,0.075,0.094,0.117,0.141C2.391,111.737,2.473,111.697,2.476,111.651z M2.358,120.89c-0.045-0.002-0.094,0.075-0.141,0.117c0.042,0.047,0.083,0.13,0.128,0.132c0.045,0.002,0.094-0.075,0.141-0.117 C2.443,120.975,2.403,120.893,2.358,120.89z M2.343,116.854c0.047-0.042,0.095-0.085,0.142-0.127 c-0.042-0.047-0.083-0.129-0.128-0.132c-0.045-0.002-0.094,0.075-0.141,0.118C2.258,116.76,2.3,116.807,2.343,116.854z M2.476,133.512c0.002-0.045-0.075-0.094-0.118-0.141c-0.047,0.042-0.13,0.083-0.132,0.128c-0.002,0.045,0.075,0.094,0.117,0.141 C2.391,133.598,2.473,133.557,2.476,133.512z M1.577,195.841c-0.045-0.002-0.094,0.075-0.141,0.117 c0.043,0.047,0.083,0.129,0.128,0.132c0.045,0.003,0.094-0.075,0.141-0.118C1.662,195.926,1.622,195.844,1.577,195.841z M2.357,137.666c-0.047,0.042-0.129,0.083-0.132,0.128c-0.002,0.045,0.075,0.094,0.117,0.141c0.047-0.042,0.094-0.085,0.142-0.127 C2.442,137.761,2.4,137.714,2.357,137.666z M1.954,141.049c0.045,0.002,0.094-0.075,0.141-0.118 c-0.042-0.047-0.083-0.13-0.128-0.132c-0.045-0.002-0.094,0.075-0.141,0.118C1.868,140.964,1.909,141.046,1.954,141.049z M1.966,138.456c-0.045-0.003-0.129,0.073-0.131,0.118c-0.002,0.045,0.075,0.094,0.117,0.141c0.047-0.042,0.095-0.085,0.142-0.127 C2.052,138.541,2.011,138.458,1.966,138.456z M2.021,142.429L2.021,142.429c0.14,0.047,0.278,0.094,0.417,0.142 c-0.048-0.139-0.097-0.278-0.145-0.417c-0.266-0.043-0.531-0.087-0.797-0.13L2.021,142.429z M2.356,125.964 c-0.045-0.002-0.094,0.075-0.141,0.118c0.042,0.047,0.085,0.094,0.127,0.142c0.047-0.042,0.095-0.085,0.142-0.127 C2.442,126.049,2.401,125.967,2.356,125.964z M2.802,144.381c0.09-0.092,0.181-0.183,0.272-0.275l-1.175-0.394l0,0 c-0.139-0.047-0.278-0.094-0.417-0.142c0.048,0.139,0.097,0.278,0.145,0.416C2.019,144.118,2.41,144.249,2.802,144.381z M1.436,149.114c0.043,0.047,0.083,0.129,0.128,0.132c0.045,0.002,0.094-0.075,0.141-0.117c-0.043-0.047-0.083-0.13-0.128-0.132 C1.532,148.995,1.483,149.072,1.436,149.114z M1.562,153.507c0.064-0.094,0.176-0.187,0.18-0.283 c0.003-0.097-0.101-0.198-0.163-0.305c-0.068,0.103-0.178,0.197-0.179,0.293C1.397,153.31,1.503,153.409,1.562,153.507z M1.631,159.605c0.139,0.047,0.278,0.094,0.417,0.142c-0.048-0.138-0.097-0.277-0.145-0.416c-0.14-0.048-0.28-0.097-0.421-0.145 L1.631,159.605L1.631,159.605z M3.219,144.522c-0.048-0.139-0.097-0.278-0.145-0.417c-0.091,0.091-0.182,0.183-0.272,0.275 C2.941,144.427,3.08,144.475,3.219,144.522z M1.578,137.665c-0.047,0.042-0.13,0.083-0.132,0.128 c-0.002,0.045,0.075,0.094,0.117,0.142c0.047-0.042,0.129-0.083,0.132-0.128C1.697,137.761,1.62,137.712,1.578,137.665z M1.562,136.374c0.047-0.042,0.094-0.084,0.142-0.127c-0.042-0.047-0.085-0.095-0.127-0.142c-0.047,0.042-0.129,0.083-0.132,0.128 C1.442,136.277,1.519,136.327,1.562,136.374z M1.619,140.194c0.047-0.102,0.095-0.204,0.144-0.31 c-0.086-0.064-0.164-0.123-0.242-0.182c-0.045,0.104-0.128,0.211-0.12,0.31C1.405,140.079,1.541,140.134,1.619,140.194z M3.787,202.205c-0.003,0.045,0.075,0.094,0.117,0.141c0.047-0.042,0.094-0.085,0.142-0.127c-0.042-0.047-0.085-0.095-0.127-0.142 C3.871,202.12,3.789,202.16,3.787,202.205z M3.527,156.022c-0.045-0.002-0.129,0.073-0.131,0.118 c-0.002,0.045,0.075,0.094,0.118,0.141c0.047-0.042,0.095-0.085,0.142-0.127C3.613,156.107,3.573,156.025,3.527,156.022z M3.514,153.55c0.047-0.042,0.095-0.085,0.142-0.127c-0.042-0.047-0.085-0.095-0.127-0.142c-0.047,0.042-0.129,0.083-0.132,0.128 C3.394,153.454,3.471,153.503,3.514,153.55z M3.906,126.995c0.045,0.003,0.094-0.075,0.141-0.117 c-0.042-0.047-0.083-0.13-0.128-0.132c-0.045-0.002-0.094,0.075-0.141,0.117C3.82,126.91,3.861,126.993,3.906,126.995z M2.022,151.407c0.139,0.047,0.278,0.095,0.417,0.142c-0.048-0.139-0.097-0.278-0.145-0.416c-0.14-0.048-0.28-0.097-0.421-0.145 L2.022,151.407L2.022,151.407z M2.13,145.348c-0.007-0.068-0.142-0.122-0.219-0.182c-0.044,0.104-0.128,0.21-0.12,0.31 c0.005,0.068,0.138,0.126,0.223,0.197C2.06,145.556,2.141,145.447,2.13,145.348z M1.446,172.536 c-0.002,0.045,0.075,0.094,0.117,0.141c0.047-0.042,0.129-0.083,0.132-0.128s-0.075-0.094-0.117-0.141 C1.53,172.45,1.448,172.491,1.446,172.536z M2.436,175.578l-0.42,0.149l0,0c-0.047,0.139-0.094,0.278-0.142,0.417 c0.139-0.049,0.278-0.097,0.417-0.146C2.339,175.859,2.388,175.719,2.436,175.578z M1.695,164.352 c0.003-0.045-0.075-0.094-0.117-0.141c-0.047,0.042-0.13,0.083-0.132,0.128c-0.002,0.045,0.075,0.094,0.117,0.141 C1.61,164.437,1.692,164.396,1.695,164.352z M2.315,184.488c-0.243-0.132-0.37-0.249-0.502-0.255 c-0.087-0.004-0.266,0.162-0.256,0.231c0.019,0.133,0.143,0.25,0.223,0.374C1.918,184.748,2.055,184.658,2.315,184.488z M2.617,181.905c-0.002,0.045,0.075,0.094,0.117,0.141c0.047-0.042,0.129-0.083,0.132-0.128c0.003-0.045-0.075-0.094-0.117-0.141 C2.701,181.819,2.619,181.86,2.617,181.905z M3.472,191.608c0.036-0.267,0.072-0.533,0.108-0.8c-0.135,0.18-0.27,0.36-0.406,0.54 c-0.191,0.123-0.383,0.246-0.574,0.369l0.519,0.494C3.237,192.01,3.354,191.809,3.472,191.608 C3.472,191.608,3.472,191.608,3.472,191.608z M3.006,194.788c-0.002,0.045,0.075,0.094,0.117,0.141 c0.047-0.042,0.094-0.085,0.142-0.127c-0.042-0.047-0.085-0.095-0.127-0.142C3.091,194.703,3.008,194.743,3.006,194.788z M4.037,159.667c0.003-0.045-0.075-0.094-0.117-0.141c-0.047,0.042-0.13,0.083-0.132,0.128c-0.002,0.045,0.075,0.094,0.117,0.142 C3.953,159.753,4.035,159.712,4.037,159.667z M1.576,168.514c-0.045-0.003-0.129,0.073-0.131,0.118 c-0.002,0.045,0.075,0.094,0.118,0.141c0.047-0.042,0.095-0.085,0.142-0.127C1.661,168.599,1.621,168.517,1.576,168.514z M4.046,143.664c-0.042-0.047-0.085-0.095-0.127-0.142c-0.047,0.042-0.129,0.083-0.132,0.128c-0.003,0.045,0.075,0.094,0.117,0.141 C3.951,143.749,3.999,143.706,4.046,143.664z M3.906,148.075C3.951,148.078,4,148,4.047,147.958 c-0.043-0.047-0.083-0.13-0.128-0.132c-0.045-0.002-0.094,0.075-0.141,0.117C3.82,147.991,3.861,148.073,3.906,148.075z M3.788,152.627c-0.002,0.045,0.075,0.094,0.117,0.141c0.047-0.042,0.129-0.083,0.132-0.128c0.003-0.045-0.075-0.094-0.117-0.141 C3.872,152.542,3.79,152.582,3.788,152.627z M3.918,160.317c-0.045-0.003-0.129,0.073-0.131,0.118s0.075,0.094,0.117,0.141 c0.047-0.042,0.095-0.085,0.142-0.127C4.003,160.401,3.963,160.319,3.918,160.317z M3.007,183.466 c-0.002,0.045,0.075,0.094,0.117,0.141c0.047-0.042,0.129-0.083,0.132-0.128c0.002-0.045-0.075-0.094-0.117-0.141 C3.092,183.381,3.009,183.421,3.007,183.466z M4.635,175.335c-0.091,0.091-0.182,0.183-0.271,0.275 c0.139,0.047,0.278,0.094,0.417,0.142C4.732,175.613,4.684,175.474,4.635,175.335z M3.966,139.427 c0.046-0.117,0.127-0.226,0.116-0.325c-0.007-0.068-0.142-0.122-0.219-0.182c-0.044,0.104-0.128,0.21-0.12,0.31 C3.748,139.297,3.88,139.356,3.966,139.427z M3.788,138.183c-0.002,0.045,0.075,0.094,0.117,0.142 c0.047-0.042,0.129-0.083,0.132-0.128c0.003-0.045-0.075-0.094-0.117-0.141C3.872,138.098,3.79,138.139,3.788,138.183z M4.771,174.786c-0.138,0.054-0.276,0.107-0.414,0.161l0,0c0.002,0.221,0.005,0.442,0.007,0.663c0.09-0.092,0.181-0.184,0.272-0.275 c0,0,0.015-0.128,0.015-0.128C4.691,175.067,4.731,174.926,4.771,174.786z M4.046,128.828c-0.042-0.047-0.083-0.13-0.128-0.132 c-0.045-0.003-0.094,0.075-0.141,0.118c0.042,0.047,0.085,0.094,0.127,0.142C3.951,128.913,3.999,128.871,4.046,128.828z M3.545,95.86c-0.055-0.009-0.206,0.179-0.199,0.268c0.011,0.135,0.122,0.261,0.241,0.486c0.186-0.258,0.291-0.403,0.396-0.549 C3.838,95.991,3.699,95.886,3.545,95.86z M3.787,111.639c-0.003,0.045,0.075,0.094,0.117,0.141c0.047-0.042,0.094-0.085,0.142-0.127 c-0.042-0.047-0.085-0.094-0.127-0.142C3.871,111.554,3.789,111.594,3.787,111.639z M3.904,135.592 c0.047-0.042,0.095-0.085,0.142-0.127c-0.042-0.047-0.083-0.129-0.128-0.132c-0.045-0.002-0.094,0.075-0.141,0.118 C3.819,135.497,3.862,135.545,3.904,135.592z M3.648,197.691c-0.202,0.033-0.386,0.181-0.578,0.282 c0.114,0.143,0.228,0.402,0.343,0.403c0.2,0.001,0.401-0.157,0.755-0.318C3.896,197.857,3.756,197.674,3.648,197.691z M1.577,186.472c-0.045-0.002-0.094,0.075-0.141,0.118c0.043,0.047,0.083,0.13,0.128,0.132c0.045,0.003,0.094-0.075,0.141-0.117 C1.662,186.557,1.622,186.475,1.577,186.472z M2.438,195.661c-0.048-0.139-0.097-0.278-0.145-0.417 c-0.091,0.091-0.182,0.183-0.271,0.275C2.161,195.566,2.3,195.613,2.438,195.661z M4.701,169.676 c-0.047,0.042-0.13,0.083-0.132,0.128c-0.002,0.045,0.075,0.094,0.117,0.141c0.047-0.042,0.129-0.083,0.132-0.128 C4.82,169.772,4.743,169.723,4.701,169.676z M2.021,195.519c0.09-0.092,0.181-0.184,0.272-0.275c-0.14-0.048-0.28-0.097-0.421-0.145 L2.021,195.519z M1.704,194.022c-0.042-0.047-0.085-0.095-0.127-0.142c-0.047,0.042-0.129,0.083-0.132,0.128 c-0.003,0.045,0.075,0.094,0.117,0.141C1.609,194.106,1.656,194.064,1.704,194.022z M2.734,212.104 c0.047-0.042,0.129-0.083,0.132-0.128c0.003-0.045-0.075-0.094-0.117-0.141c-0.047,0.042-0.13,0.083-0.132,0.128 C2.614,212.008,2.692,212.057,2.734,212.104z M2.683,202.271c-0.091,0.091-0.182,0.183-0.271,0.275 c0.139,0.047,0.278,0.094,0.417,0.142C2.78,202.549,2.732,202.41,2.683,202.271z M3.397,199.862 c-0.002,0.045,0.075,0.094,0.117,0.141c0.047-0.042,0.129-0.083,0.132-0.128c0.003-0.045-0.075-0.094-0.117-0.141 C3.482,199.776,3.4,199.817,3.397,199.862z M2.412,202.546c0.09-0.092,0.181-0.184,0.272-0.275c-0.14-0.048-0.28-0.097-0.421-0.145 C2.312,202.266,2.362,202.406,2.412,202.546z M2.875,161.23c-0.042-0.047-0.085-0.095-0.127-0.142 c-0.047,0.042-0.129,0.083-0.132,0.128c-0.003,0.045,0.075,0.094,0.117,0.141C2.78,161.315,2.828,161.273,2.875,161.23z M3.397,176.439c-0.002,0.045,0.075,0.094,0.117,0.141c0.047-0.042,0.129-0.083,0.132-0.128c0.003-0.045-0.075-0.094-0.117-0.141 C3.482,176.354,3.4,176.395,3.397,176.439z M3.187,167.92c-0.047,0.139-0.094,0.278-0.142,0.417 c0.139-0.048,0.278-0.097,0.416-0.145C3.371,168.101,3.279,168.01,3.187,167.92z M3.527,175.15 c-0.045-0.002-0.129,0.073-0.131,0.118c-0.002,0.045,0.075,0.094,0.118,0.141c0.047-0.042,0.095-0.085,0.142-0.127 C3.613,175.235,3.573,175.153,3.527,175.15z M3.187,167.92c0.092,0.09,0.184,0.181,0.275,0.272c0.048-0.14,0.097-0.281,0.145-0.421 L3.187,167.92z M3.647,161.229c0.003-0.045-0.075-0.094-0.117-0.141c-0.047,0.042-0.13,0.083-0.132,0.128 c-0.002,0.045,0.075,0.094,0.117,0.141C3.562,161.314,3.644,161.274,3.647,161.229z M3.139,154.09 c-0.068,0.103-0.178,0.197-0.18,0.293c-0.002,0.098,0.105,0.197,0.164,0.295c0.064-0.094,0.176-0.187,0.179-0.283 C3.306,154.298,3.201,154.198,3.139,154.09z M2.797,171.433L2.797,171.433c-0.047,0.14-0.094,0.278-0.142,0.417 c0.139-0.048,0.278-0.097,0.417-0.145c0.048-0.14,0.097-0.28,0.145-0.421L2.797,171.433z M2.617,178.782 c-0.002,0.045,0.075,0.094,0.117,0.142c0.047-0.042,0.129-0.083,0.132-0.128c0.003-0.045-0.075-0.094-0.117-0.141 C2.701,178.696,2.619,178.737,2.617,178.782z M3.515,166.822c0.047-0.043,0.129-0.083,0.132-0.128 c0.003-0.045-0.075-0.094-0.117-0.141c-0.047,0.042-0.13,0.083-0.132,0.128C3.395,166.725,3.472,166.774,3.515,166.822z M2.733,162.137c0.047-0.042,0.095-0.085,0.142-0.127c-0.042-0.047-0.083-0.129-0.128-0.132c-0.045-0.002-0.129,0.073-0.131,0.118 S2.69,162.09,2.733,162.137z M2.09,157.097c0.099,0.011,0.209-0.067,0.325-0.112c-0.069-0.086-0.126-0.22-0.193-0.225 c-0.099-0.009-0.207,0.073-0.31,0.117C1.971,156.954,2.023,157.089,2.09,157.097z M1.835,157.702 c-0.003,0.045,0.075,0.094,0.117,0.141c0.047-0.042,0.095-0.085,0.142-0.127c-0.042-0.047-0.083-0.129-0.128-0.132 C1.921,157.581,1.837,157.657,1.835,157.702z M1.967,182.559c-0.047,0.042-0.129,0.083-0.132,0.128 c-0.003,0.045,0.075,0.094,0.117,0.141c0.047-0.042,0.095-0.085,0.142-0.127C2.052,182.653,2.009,182.606,1.967,182.559z M2.691,162.833c0.104,0.045,0.21,0.128,0.31,0.12c0.066-0.005,0.122-0.141,0.182-0.219c-0.102-0.047-0.204-0.095-0.31-0.144 C2.809,162.677,2.75,162.755,2.691,162.833z M1.835,183.468c-0.003,0.045,0.075,0.094,0.117,0.141 c0.047-0.042,0.095-0.085,0.142-0.127c-0.042-0.047-0.085-0.095-0.127-0.142C1.919,183.382,1.837,183.422,1.835,183.468z M3.18,178.06c-0.059-0.078-0.111-0.213-0.178-0.221c-0.099-0.011-0.209,0.067-0.325,0.112c0.069,0.086,0.126,0.22,0.193,0.226 C2.968,178.186,3.076,178.104,3.18,178.06z M1.967,188.415c-0.047,0.042-0.129,0.083-0.132,0.128 c-0.003,0.045,0.075,0.094,0.117,0.141l0.142-0.128L1.967,188.415z M2.348,146.718c0.103,0.099,0.201,0.272,0.312,0.28 c0.154,0.012,0.318-0.099,0.477-0.157c-0.088-0.112-0.177-0.223-0.288-0.363C2.653,146.572,2.5,146.645,2.348,146.718z M3.856,179.513c0.048-0.141,0.095-0.281,0.143-0.422c-0.141,0.048-0.281,0.096-0.422,0.144h0c-0.13,0.13-0.26,0.26-0.391,0.391 c-0.278,0.089-0.556,0.178-0.834,0.267c0.041,0.092,0.099,0.266,0.12,0.262c0.333-0.07,0.662-0.163,0.992-0.251 C3.596,179.774,3.726,179.644,3.856,179.513z M3.904,197.27c0.047-0.042,0.095-0.085,0.142-0.127 c-0.043-0.047-0.083-0.13-0.128-0.132c-0.045-0.003-0.129,0.073-0.131,0.118C3.784,197.174,3.862,197.223,3.904,197.27z M3.581,195.632c-0.043,0.266-0.087,0.531-0.13,0.797c0.135-0.175,0.27-0.35,0.405-0.525C3.764,195.814,3.672,195.724,3.581,195.632 z M2.616,163.949c-0.003,0.045,0.075,0.094,0.117,0.141c0.047-0.042,0.095-0.085,0.142-0.127c-0.042-0.047-0.085-0.095-0.127-0.142 C2.7,163.864,2.618,163.904,2.616,163.949z M3.787,164.729c-0.002,0.045,0.075,0.094,0.117,0.141 c0.047-0.043,0.095-0.085,0.142-0.127c-0.043-0.047-0.083-0.129-0.128-0.132C3.873,164.608,3.789,164.684,3.787,164.729z M3.919,181.388c-0.047,0.042-0.129,0.083-0.132,0.128c-0.003,0.045,0.075,0.094,0.117,0.141c0.047-0.042,0.094-0.085,0.142-0.127 C4.003,181.482,3.961,181.435,3.919,181.388z M3.647,185.431c0.003-0.045-0.075-0.094-0.117-0.141 c-0.047,0.042-0.13,0.083-0.132,0.128c-0.002,0.045,0.075,0.094,0.117,0.142C3.562,185.517,3.644,185.476,3.647,185.431z M3.784,193.844c-0.099-0.008-0.207,0.074-0.31,0.117c0.059,0.078,0.111,0.213,0.178,0.22c0.099,0.012,0.209-0.067,0.325-0.112 C3.907,193.984,3.851,193.85,3.784,193.844z M3.576,189.004c0.046-0.117,0.126-0.226,0.116-0.325 c-0.007-0.068-0.142-0.122-0.219-0.182c-0.044,0.104-0.128,0.21-0.12,0.31C3.358,188.874,3.49,188.933,3.576,189.004z M3.998,195.487c-0.139,0.048-0.278,0.097-0.417,0.145c0.091,0.091,0.183,0.182,0.275,0.271 C3.903,195.765,3.95,195.626,3.998,195.487z M4.172,172.375c-0.099-0.012-0.208,0.067-0.325,0.112 c0.069,0.087,0.126,0.22,0.193,0.226c0.099,0.009,0.207-0.073,0.31-0.117C4.292,172.517,4.24,172.382,4.172,172.375z M2.344,174.62 c0.045,0.002,0.094-0.075,0.141-0.117c-0.042-0.047-0.083-0.13-0.128-0.132c-0.045-0.002-0.094,0.075-0.141,0.118 C2.259,174.536,2.299,174.618,2.344,174.62z M2.484,169.818l-0.127-0.142c-0.047,0.042-0.129,0.083-0.132,0.128 c-0.003,0.045,0.075,0.094,0.117,0.141L2.484,169.818z M2.343,171.116c0.047-0.042,0.095-0.085,0.142-0.127 c-0.042-0.047-0.083-0.129-0.128-0.132c-0.045-0.003-0.129,0.073-0.131,0.118C2.223,171.019,2.3,171.069,2.343,171.116z M2.735,167.203c0.045,0.002,0.094-0.075,0.141-0.117c-0.042-0.047-0.083-0.13-0.128-0.132c-0.045-0.002-0.094,0.075-0.141,0.118 C2.649,167.119,2.69,167.201,2.735,167.203z M2.344,165.642c0.045,0.003,0.094-0.075,0.141-0.117 c-0.042-0.047-0.083-0.13-0.128-0.132c-0.045-0.002-0.094,0.075-0.141,0.117C2.259,165.557,2.299,165.639,2.344,165.642z M2.344,181.265c0.047-0.042,0.129-0.083,0.132-0.128c0.003-0.045-0.075-0.094-0.117-0.141c-0.047,0.042-0.13,0.083-0.132,0.128 C2.224,181.169,2.301,181.218,2.344,181.265z M2.301,167.809c-0.045,0.104-0.128,0.211-0.12,0.31 c0.005,0.066,0.141,0.122,0.219,0.182c0.047-0.102,0.095-0.204,0.143-0.31C2.458,167.927,2.379,167.868,2.301,167.809z M2.476,158.496c0.003-0.045-0.075-0.094-0.117-0.141c-0.047,0.042-0.13,0.083-0.132,0.128c-0.002,0.045,0.075,0.094,0.117,0.141 C2.391,158.581,2.473,158.541,2.476,158.496z M3.655,151.081c-0.042-0.047-0.085-0.094-0.127-0.142 c-0.047,0.042-0.129,0.083-0.132,0.128c-0.003,0.045,0.075,0.094,0.117,0.141L3.655,151.081z M5.208,153.421 c0.003-0.045-0.075-0.094-0.117-0.141c-0.047,0.042-0.13,0.083-0.132,0.128c-0.002,0.045,0.075,0.094,0.117,0.141 C5.124,153.507,5.206,153.466,5.208,153.421z M5.091,152.499c-0.047,0.043-0.13,0.083-0.132,0.128 c-0.002,0.045,0.075,0.094,0.117,0.141c0.047-0.042,0.129-0.083,0.132-0.128C5.211,152.596,5.133,152.546,5.091,152.499z M5.091,163.039c-0.047,0.042-0.13,0.083-0.132,0.128c-0.002,0.045,0.075,0.094,0.117,0.141c0.047-0.042,0.129-0.083,0.132-0.128 C5.211,163.135,5.133,163.086,5.091,163.039z M5.12,177.545C5.12,177.544,5.12,177.544,5.12,177.545c0,0,0.019,0.135,0.019,0.135 l0,0c-0.047,0.139-0.095,0.278-0.142,0.417c0.139-0.048,0.278-0.097,0.417-0.145c0.002-0.221,0.004-0.441,0.005-0.662 c-0.137-0.055-0.274-0.11-0.412-0.164C5.045,177.265,5.082,177.405,5.12,177.545z M4.939,200.871 c-0.068-0.015-0.227,0.191-0.267,0.321c-0.019,0.06,0.143,0.244,0.235,0.253c0.129,0.012,0.268-0.086,0.535-0.187 C5.197,201.057,5.081,200.903,4.939,200.871z M4.749,149.963c-0.047,0.139-0.094,0.278-0.142,0.417 c0.139-0.048,0.278-0.097,0.416-0.145c0.048-0.14,0.097-0.281,0.145-0.421C5.029,149.864,4.889,149.913,4.749,149.963L4.749,149.963 z M5.169,165.039l-0.42,0.149l0,0c-0.047,0.139-0.094,0.278-0.142,0.417c0.139-0.048,0.278-0.097,0.417-0.145L5.169,165.039z M4.744,109.645c-0.102-0.048-0.204-0.095-0.31-0.144c-0.064,0.086-0.123,0.164-0.182,0.242c0.104,0.045,0.21,0.128,0.31,0.12 C4.629,109.858,4.684,109.722,4.744,109.645z M4.687,131.68c0.045,0.002,0.094-0.075,0.141-0.118 c-0.042-0.047-0.083-0.13-0.128-0.132c-0.045-0.002-0.094,0.075-0.141,0.118C4.601,131.595,4.642,131.677,4.687,131.68z M4.216,108.22c0.139-0.048,0.278-0.097,0.417-0.145c-0.091-0.091-0.183-0.182-0.275-0.271 C4.311,107.942,4.264,108.081,4.216,108.22z M4.358,136.691c-0.047,0.139-0.094,0.278-0.142,0.417 c0.139-0.049,0.278-0.097,0.417-0.146c0.048-0.14,0.097-0.28,0.145-0.42L4.358,136.691L4.358,136.691z M4.687,148.466 c0.045,0.002,0.094-0.075,0.141-0.118c-0.042-0.047-0.083-0.13-0.128-0.132c-0.045-0.002-0.094,0.075-0.141,0.118 C4.601,148.381,4.642,148.463,4.687,148.466z M5.089,202.086c-0.045-0.002-0.129,0.073-0.131,0.118 c-0.002,0.045,0.075,0.094,0.117,0.141c0.047-0.042,0.095-0.085,0.142-0.127C5.175,202.171,5.134,202.088,5.089,202.086z M4.828,118.68c-0.042-0.047-0.083-0.13-0.128-0.132c-0.045-0.002-0.094,0.075-0.141,0.117c0.042,0.047,0.083,0.129,0.128,0.132 C4.731,118.8,4.781,118.722,4.828,118.68z M4.7,147.435c-0.045-0.002-0.094,0.075-0.141,0.118c0.042,0.047,0.083,0.129,0.128,0.132 c0.045,0.003,0.094-0.075,0.141-0.117C4.785,147.52,4.745,147.438,4.7,147.435z M4.701,138.836c-0.047,0.042-0.13,0.083-0.132,0.128 c-0.002,0.045,0.075,0.094,0.117,0.141c0.047-0.042,0.129-0.083,0.132-0.128C4.82,138.933,4.743,138.884,4.701,138.836z M4.687,134.022c0.045,0.003,0.094-0.075,0.141-0.117c-0.042-0.047-0.083-0.129-0.128-0.132c-0.045-0.002-0.094,0.075-0.141,0.117 C4.601,133.937,4.642,134.019,4.687,134.022z M4.352,205.797c-0.067-0.128-0.218-0.212-0.399-0.369 c-0.104,0.24-0.171,0.397-0.239,0.554c0.149,0.04,0.305,0.124,0.445,0.102C4.242,206.073,4.38,205.851,4.352,205.797z M3.787,213.526c-0.003,0.045,0.075,0.094,0.117,0.141c0.047-0.042,0.094-0.085,0.142-0.127c-0.042-0.047-0.085-0.095-0.127-0.142 C3.871,213.44,3.789,213.481,3.787,213.526z M4.046,207.294c-0.042-0.047-0.085-0.094-0.127-0.142 c-0.047,0.042-0.129,0.083-0.132,0.128c-0.003,0.045,0.075,0.094,0.117,0.141L4.046,207.294z M3.787,221.724 c-0.003,0.045,0.075,0.094,0.117,0.141c0.047-0.042,0.094-0.085,0.142-0.127c-0.042-0.047-0.085-0.095-0.127-0.142 C3.871,221.638,3.789,221.679,3.787,221.724z M3.919,208.333c-0.045-0.002-0.094,0.075-0.141,0.118 c0.043,0.047,0.083,0.129,0.128,0.132c0.045,0.002,0.094-0.075,0.141-0.118C4.005,208.418,3.964,208.335,3.919,208.333z M3.352,224.723c0.005,0.066,0.141,0.122,0.219,0.182c0.047-0.102,0.095-0.204,0.143-0.31c-0.085-0.064-0.164-0.123-0.242-0.182 C3.427,224.516,3.344,224.624,3.352,224.723z M3.138,219.654c-0.045-0.002-0.094,0.075-0.141,0.118 c0.043,0.047,0.083,0.129,0.128,0.132c0.045,0.002,0.094-0.075,0.141-0.118C3.224,219.739,3.183,219.656,3.138,219.654z M2.797,223.353c-0.047,0.139-0.095,0.278-0.142,0.417c0.139-0.048,0.278-0.097,0.417-0.145l0.145-0.421L2.797,223.353 L2.797,223.353z M2.962,210.279c0.005,0.066,0.141,0.122,0.219,0.182c0.047-0.102,0.095-0.205,0.143-0.31 c-0.086-0.064-0.164-0.123-0.242-0.182C3.037,210.073,2.954,210.18,2.962,210.279z M4.296,215.219 c0.045,0.003,0.094-0.075,0.141-0.118c-0.042-0.047-0.083-0.13-0.128-0.132c-0.045-0.002-0.094,0.075-0.141,0.117 C4.211,215.134,4.251,215.216,4.296,215.219z M5.09,216.921c-0.045-0.002-0.094,0.075-0.141,0.117 c0.043,0.047,0.083,0.129,0.128,0.132c0.045,0.002,0.094-0.075,0.141-0.118C5.176,217.006,5.135,216.924,5.09,216.921z M5.023,221.282l0.145-0.42c-0.14,0.05-0.28,0.099-0.42,0.149l0,0c-0.047,0.139-0.094,0.278-0.142,0.417 C4.746,221.379,4.884,221.331,5.023,221.282z M4.958,203.766c-0.002,0.045,0.075,0.094,0.117,0.141 c0.047-0.042,0.095-0.085,0.142-0.127c-0.042-0.047-0.083-0.13-0.128-0.132C5.044,203.645,4.96,203.721,4.958,203.766z M4.3,212.811 c0.159,0.059,0.318,0.164,0.476,0.162c0.119-0.001,0.237-0.139,0.479-0.297c-0.319-0.08-0.489-0.17-0.641-0.146 C4.497,212.549,4.404,212.712,4.3,212.811z M3.514,0.135C3.561,0.092,3.608,0.05,3.655,0.008C3.653,0.005,3.651,0.003,3.649,0H3.4 C3.404,0.043,3.473,0.09,3.514,0.135z M4.31,224.729c-0.045-0.002-0.094,0.075-0.141,0.117c0.042,0.047,0.083,0.13,0.128,0.132 c0.045,0.003,0.094-0.075,0.141-0.117C4.395,224.813,4.354,224.731,4.31,224.729z M4.754,222.845 c0.09-0.092,0.181-0.183,0.272-0.275c-0.14-0.049-0.28-0.097-0.421-0.145L4.754,222.845z M4.754,222.845 c0.139,0.047,0.278,0.095,0.417,0.142c-0.048-0.139-0.097-0.278-0.145-0.417C4.935,222.662,4.844,222.753,4.754,222.845z M3.904,53.225c0.047-0.042,0.094-0.085,0.142-0.128c-0.042-0.047-0.085-0.094-0.127-0.142c-0.047,0.042-0.129,0.083-0.132,0.128 C3.784,53.129,3.862,53.178,3.904,53.225z M2.733,218.352l0.142-0.127c-0.042-0.047-0.085-0.094-0.127-0.142 c-0.047,0.042-0.129,0.083-0.132,0.128S2.69,218.305,2.733,218.352z M4.31,49.062c-0.045-0.002-0.094,0.075-0.141,0.117 c0.042,0.047,0.083,0.13,0.128,0.132c0.045,0.003,0.094-0.075,0.141-0.117C4.395,49.147,4.354,49.064,4.31,49.062z M4.04,54.04 c0.099,0.009,0.207-0.073,0.31-0.117c-0.059-0.078-0.111-0.213-0.178-0.221c-0.099-0.012-0.209,0.067-0.325,0.112 C3.917,53.901,3.973,54.034,4.04,54.04z M3.919,42.816c-0.045-0.002-0.094,0.075-0.141,0.117c0.043,0.047,0.083,0.129,0.128,0.132 C3.951,43.068,4,42.991,4.047,42.948C4.005,42.901,3.964,42.819,3.919,42.816z M3.583,37.809C3.722,37.856,3.861,37.904,4,37.951 c-0.048-0.139-0.097-0.278-0.145-0.417C3.763,37.626,3.673,37.718,3.583,37.809z M3.081,86.711c0.104,0.044,0.21,0.128,0.31,0.12 c0.066-0.005,0.122-0.141,0.182-0.218c-0.102-0.047-0.204-0.095-0.31-0.144C3.199,86.554,3.141,86.633,3.081,86.711z M3.514,55.566 c0.047-0.042,0.095-0.085,0.142-0.127c-0.043-0.047-0.083-0.129-0.128-0.132c-0.045-0.002-0.094,0.075-0.141,0.118 C3.429,55.472,3.471,55.519,3.514,55.566z M3.469,72.658c0.079-0.057,0.158-0.115,0.245-0.178c-0.048-0.106-0.094-0.208-0.141-0.311 c-0.078,0.059-0.215,0.113-0.221,0.178C3.344,72.447,3.426,72.554,3.469,72.658z M4.358,107.803c0.092,0.09,0.184,0.181,0.275,0.272 c0.048-0.14,0.097-0.281,0.145-0.421L4.358,107.803z M4.037,34.749c0.003-0.045-0.075-0.094-0.117-0.141 c-0.047,0.042-0.13,0.083-0.132,0.128c-0.002,0.045,0.075,0.094,0.117,0.141C3.953,34.834,4.035,34.794,4.037,34.749z M3.918,15.099 c-0.045-0.002-0.094,0.075-0.141,0.117c0.042,0.047,0.085,0.094,0.127,0.142c0.047-0.042,0.095-0.085,0.142-0.127 C4.003,15.183,3.963,15.101,3.918,15.099z M3.514,68.058c0.047-0.042,0.095-0.085,0.142-0.127c-0.043-0.047-0.083-0.129-0.128-0.132 c-0.045-0.003-0.094,0.075-0.141,0.117C3.429,67.963,3.471,68.011,3.514,68.058z M3.92,7.672C3.872,7.714,3.79,7.755,3.788,7.8 C3.786,7.845,3.863,7.894,3.905,7.941c0.047-0.042,0.129-0.083,0.132-0.128C4.04,7.768,3.962,7.719,3.92,7.672z M3.46,4.74 L3.46,4.74c-0.14-0.047-0.278-0.094-0.417-0.142C3.092,4.737,3.14,4.876,3.189,5.015l0.374,0.772c0.136,0.18,0.272,0.36,0.407,0.541 C3.934,6.06,3.897,5.793,3.86,5.526C3.727,5.264,3.594,5.002,3.46,4.74z M3.192,31.173c0.09-0.092,0.181-0.184,0.272-0.275 c-0.14-0.048-0.28-0.097-0.421-0.145L3.192,31.173z M3.464,30.898c-0.091,0.091-0.182,0.183-0.272,0.275 c0.139,0.047,0.278,0.095,0.417,0.142C3.561,31.176,3.513,31.037,3.464,30.898z M2.655,37.925c0.265-0.032,0.529-0.064,0.794-0.096 c0,0,0.134-0.019,0.134-0.019c0.09-0.092,0.181-0.183,0.272-0.275c-0.221-0.002-0.441-0.004-0.662-0.005 C3.013,37.661,2.834,37.793,2.655,37.925z M3.574,26.887C3.496,26.946,3.359,27,3.353,27.065c-0.009,0.099,0.073,0.207,0.116,0.311 c0.079-0.057,0.158-0.115,0.245-0.178C3.666,27.092,3.62,26.989,3.574,26.887z M2.741,59.881c-0.156,0.006-0.307,0.152-0.46,0.236 c0.153,0.084,0.304,0.229,0.461,0.235c0.155,0.006,0.316-0.128,0.553-0.236C3.057,60.008,2.896,59.874,2.741,59.881z M3.852,81.92 c0.048-0.14,0.097-0.281,0.145-0.421c-0.14,0.05-0.28,0.099-0.42,0.149C3.669,81.738,3.761,81.829,3.852,81.92z M4.178,99.927 c-0.002,0.045,0.075,0.094,0.117,0.142c0.047-0.042,0.129-0.083,0.132-0.128c0.002-0.045-0.075-0.094-0.117-0.141 C4.263,99.842,4.18,99.882,4.178,99.927z M3.529,64.276c-0.047,0.042-0.13,0.083-0.132,0.128c-0.002,0.045,0.075,0.094,0.117,0.141 c0.047-0.042,0.129-0.083,0.132-0.128C3.649,64.372,3.572,64.323,3.529,64.276z M4.294,99.289c0.047-0.042,0.094-0.085,0.142-0.127 c-0.042-0.047-0.085-0.094-0.127-0.142c-0.047,0.042-0.129,0.083-0.132,0.128C4.174,99.193,4.252,99.242,4.294,99.289z M4.276,84.909c-0.192,0.231-0.306,0.368-0.421,0.506c0.126,0.088,0.244,0.21,0.383,0.247c0.061,0.016,0.239-0.149,0.237-0.229 C4.473,85.289,4.374,85.146,4.276,84.909z M4.31,140.409c-0.045-0.002-0.094,0.075-0.141,0.117c0.042,0.047,0.083,0.129,0.128,0.132 c0.045,0.003,0.094-0.075,0.141-0.117C4.395,140.493,4.354,140.411,4.31,140.409z M4.296,94.994 c0.047-0.042,0.129-0.083,0.132-0.128c0.003-0.045-0.075-0.094-0.117-0.141c-0.047,0.042-0.13,0.083-0.132,0.128 C4.176,94.897,4.253,94.946,4.296,94.994z M4.296,89.528c0.047-0.042,0.129-0.083,0.132-0.128c0.002-0.045-0.075-0.094-0.117-0.141 c-0.047,0.042-0.13,0.083-0.132,0.128C4.176,89.432,4.253,89.481,4.296,89.528z M4.428,86.668c0.002-0.045-0.075-0.094-0.117-0.141 c-0.047,0.042-0.13,0.083-0.132,0.128c-0.002,0.045,0.075,0.094,0.117,0.141C4.343,86.753,4.425,86.713,4.428,86.668z M3.436,82.065 c0.139-0.048,0.278-0.097,0.417-0.145c-0.091-0.091-0.183-0.182-0.275-0.272C3.531,81.788,3.483,81.926,3.436,82.065z M4.296,75.076 c0.045,0.002,0.094-0.075,0.141-0.117c-0.042-0.047-0.083-0.13-0.128-0.132c-0.045-0.002-0.094,0.075-0.141,0.117 C4.211,74.991,4.251,75.073,4.296,75.076z M4.046,76.519c-0.042-0.047-0.083-0.129-0.128-0.132 c-0.045-0.002-0.094,0.075-0.141,0.118c0.042,0.047,0.085,0.094,0.127,0.142C3.951,76.604,3.999,76.561,4.046,76.519z M4.31,67.41 c-0.045-0.002-0.094,0.075-0.141,0.117c0.042,0.047,0.083,0.13,0.128,0.132c0.045,0.003,0.094-0.075,0.141-0.117 C4.395,67.494,4.354,67.412,4.31,67.41z M3.919,65.458c-0.045-0.002-0.094,0.075-0.141,0.117c0.043,0.047,0.083,0.129,0.128,0.132 C3.951,65.709,4,65.632,4.047,65.59C4.005,65.542,3.964,65.46,3.919,65.458z M4.178,72.992c-0.002,0.045,0.075,0.094,0.117,0.141 c0.047-0.042,0.129-0.083,0.132-0.128c0.002-0.045-0.075-0.094-0.117-0.141C4.263,72.906,4.181,72.947,4.178,72.992z M3.919,70.533 c-0.045-0.002-0.094,0.075-0.141,0.117c0.043,0.047,0.083,0.129,0.128,0.132C3.951,70.784,4,70.707,4.047,70.665 C4.005,70.617,3.964,70.535,3.919,70.533z M3.65,66.922c0.099,0.009,0.207-0.073,0.31-0.117c-0.059-0.078-0.111-0.213-0.178-0.221 c-0.099-0.011-0.208,0.067-0.325,0.112C3.526,66.783,3.582,66.916,3.65,66.922z M3.919,68.581c-0.045-0.002-0.094,0.075-0.141,0.117 c0.043,0.047,0.083,0.13,0.128,0.132C3.951,68.833,4,68.755,4.047,68.713C4.005,68.666,3.964,68.583,3.919,68.581z M4.076,104.882 c0.033,0.202,0.181,0.386,0.281,0.578c0.143-0.114,0.402-0.228,0.403-0.343c0.002-0.2-0.157-0.401-0.318-0.755 C4.242,104.635,4.059,104.775,4.076,104.882z M0.845,117.563c-0.047,0.139-0.094,0.278-0.142,0.417 c0.139-0.048,0.278-0.097,0.416-0.145C1.028,117.743,0.937,117.652,0.845,117.563z M0.665,110.467 c-0.002,0.045,0.075,0.094,0.117,0.141c0.047-0.042,0.129-0.083,0.132-0.128c0.002-0.044-0.075-0.094-0.117-0.141 C0.75,110.382,0.667,110.422,0.665,110.467z M0.74,123.305c-0.044,0.104-0.128,0.21-0.12,0.31c0.005,0.068,0.138,0.126,0.223,0.198 c0.046-0.116,0.126-0.226,0.116-0.325C0.951,123.419,0.817,123.365,0.74,123.305z M1.241,117.835 c0.139,0.047,0.278,0.094,0.417,0.142c-0.048-0.139-0.097-0.278-0.145-0.417c-0.222,0.001-0.445,0.001-0.668,0.002 c0.092,0.09,0.184,0.181,0.275,0.272L1.241,117.835L1.241,117.835z M0.782,111.389c0.047-0.042,0.129-0.083,0.132-0.128 c0.002-0.045-0.075-0.094-0.117-0.141c-0.047,0.042-0.13,0.083-0.132,0.128C0.663,111.293,0.74,111.342,0.782,111.389z M0.957,103.163c-0.045-0.139-0.22-0.236-0.446-0.45c-0.064,0.275-0.144,0.43-0.116,0.562c0.019,0.091,0.231,0.234,0.281,0.208 C0.8,103.418,0.981,103.237,0.957,103.163z M0.405,115.033c-0.045-0.002-0.094,0.075-0.141,0.118 c0.042,0.047,0.085,0.094,0.127,0.142c0.047-0.042,0.095-0.085,0.142-0.127C0.49,115.118,0.45,115.036,0.405,115.033z M0.923,104.235c-0.042-0.047-0.083-0.13-0.128-0.132c-0.045-0.002-0.094,0.075-0.141,0.118c0.042,0.047,0.085,0.094,0.127,0.142 C0.828,104.32,0.876,104.277,0.923,104.235z M0.406,120.89c-0.045-0.002-0.094,0.075-0.141,0.117 c0.042,0.047,0.083,0.129,0.128,0.132c0.045,0.002,0.094-0.075,0.141-0.117C0.491,120.975,0.451,120.893,0.406,120.89z M1.179,132.667c-0.274-0.088-0.548-0.175-0.822-0.263l0,0c0,0-0.004-0.135-0.004-0.135c0.058-0.269,0.115-0.539,0.173-0.808 l-0.515-0.099l0.051,0.643l0,0c0,0.22,0,0.44,0,0.66c0.328,0.091,0.654,0.188,0.985,0.26C1.072,132.93,1.135,132.757,1.179,132.667z M0.914,143.662c0.002-0.045-0.075-0.094-0.117-0.141c-0.047,0.042-0.13,0.083-0.132,0.128s0.075,0.094,0.117,0.141 C0.83,143.747,0.912,143.707,0.914,143.662z M0.664,130.377c-0.002,0.045,0.075,0.094,0.117,0.141l0.142-0.127 c-0.042-0.047-0.085-0.094-0.127-0.142C0.748,130.292,0.666,130.332,0.664,130.377z M0.795,139.236 c-0.045-0.002-0.129,0.073-0.131,0.118c-0.002,0.045,0.075,0.094,0.118,0.141c0.047-0.042,0.095-0.085,0.142-0.127 C0.88,139.321,0.84,139.239,0.795,139.236z M0.796,133.772c-0.045-0.002-0.094,0.075-0.141,0.117 c0.042,0.047,0.083,0.13,0.128,0.132c0.045,0.003,0.094-0.075,0.141-0.117C0.882,133.857,0.841,133.775,0.796,133.772z M0.664,146.383c-0.002,0.045,0.075,0.094,0.117,0.141c0.047-0.042,0.094-0.085,0.142-0.127c-0.042-0.047-0.085-0.095-0.127-0.142 C0.748,146.297,0.666,146.337,0.664,146.383z M0.405,127.916c-0.045-0.003-0.094,0.075-0.141,0.117 c0.042,0.047,0.085,0.094,0.127,0.142c0.047-0.042,0.095-0.085,0.142-0.127C0.49,128,0.45,127.918,0.405,127.916z M0.782,99.288 c0.047-0.042,0.129-0.083,0.132-0.128c0.002-0.045-0.075-0.094-0.118-0.141c-0.047,0.042-0.13,0.083-0.132,0.128 C0.663,99.191,0.74,99.24,0.782,99.288z M0.796,145.083c-0.047,0.042-0.129,0.083-0.132,0.128c-0.002,0.045,0.075,0.094,0.117,0.141 c0.047-0.042,0.094-0.085,0.142-0.127C0.88,145.178,0.838,145.131,0.796,145.083z M3.919,90.832 c-0.045-0.002-0.094,0.075-0.141,0.117c0.043,0.047,0.083,0.129,0.128,0.132C3.951,91.084,4,91.006,4.047,90.964 C4.005,90.917,3.964,90.834,3.919,90.832z M3.388,92.511c0.042,0.047,0.083,0.129,0.128,0.132c0.045,0.002,0.094-0.075,0.141-0.118 c-0.042-0.047-0.083-0.129-0.128-0.132C3.484,92.391,3.435,92.468,3.388,92.511z M0.273,138.575 c-0.003,0.045,0.075,0.094,0.117,0.141c0.047-0.042,0.095-0.085,0.142-0.127c-0.042-0.047-0.085-0.094-0.127-0.142 C0.358,138.49,0.276,138.53,0.273,138.575z M3.787,88.608c-0.003,0.045,0.075,0.094,0.117,0.141 c0.047-0.043,0.094-0.085,0.142-0.127c-0.042-0.047-0.085-0.095-0.127-0.142C3.871,88.522,3.789,88.563,3.787,88.608z M4.31,110.35 c-0.045-0.002-0.094,0.075-0.141,0.117c0.042,0.047,0.083,0.129,0.128,0.132c0.045,0.002,0.094-0.075,0.141-0.118 C4.395,110.435,4.354,110.353,4.31,110.35z M4.354,108.864c-0.102-0.048-0.204-0.095-0.31-0.144 c-0.064,0.085-0.123,0.164-0.182,0.242c0.104,0.045,0.21,0.128,0.31,0.12C4.238,109.077,4.294,108.941,4.354,108.864z M3.582,127.987c0.088-0.097,0.176-0.195,0.264-0.292c-0.141-0.042-0.281-0.083-0.422-0.125 C3.477,127.71,3.529,127.849,3.582,127.987z M4.403,127.573c-0.14,0.039-0.281,0.079-0.421,0.119c0,0-0.135,0.004-0.135,0.004 c-0.088,0.097-0.176,0.195-0.264,0.292c0.22,0,0.44,0,0.659,0C4.295,127.849,4.349,127.711,4.403,127.573z M4.31,117.377 c-0.045-0.002-0.094,0.075-0.141,0.117c0.042,0.047,0.083,0.129,0.128,0.132c0.045,0.003,0.094-0.075,0.141-0.118 C4.395,117.462,4.354,117.379,4.31,117.377z M4.308,115.033c-0.045-0.002-0.094,0.075-0.141,0.118 c0.043,0.047,0.085,0.094,0.127,0.142c0.047-0.042,0.095-0.085,0.142-0.127C4.394,115.118,4.353,115.036,4.308,115.033z M3.256,87.448c0.002-0.045-0.075-0.094-0.118-0.141c-0.047,0.042-0.13,0.083-0.132,0.128c-0.002,0.045,0.075,0.094,0.117,0.142 C3.172,87.534,3.254,87.493,3.256,87.448z M0.46,89.729c0.09-0.092,0.181-0.184,0.272-0.275c-0.14-0.048-0.28-0.097-0.421-0.145 L0.46,89.729z M0.877,89.87c-0.048-0.139-0.097-0.278-0.145-0.417c-0.091,0.091-0.182,0.183-0.272,0.275 C0.599,89.776,0.738,89.823,0.877,89.87z M2.546,93.031c0.07,0.334,0.163,0.662,0.25,0.992c0,0,0,0,0,0 c0.13,0.13,0.26,0.26,0.391,0.391c0.114,0.194,0.228,0.388,0.342,0.582c0.112-0.198,0.225-0.395,0.337-0.592 c0.042-0.263,0.084-0.526,0.126-0.789c-0.133,0.167-0.266,0.335-0.399,0.502c0,0-0.128,0.017-0.128,0.017s0,0,0,0 c-0.13-0.13-0.26-0.26-0.39-0.391l-0.267-0.834C2.717,92.952,2.542,93.01,2.546,93.031z M0.265,93.292 c0.042,0.047,0.083,0.13,0.128,0.132c0.045,0.002,0.094-0.075,0.141-0.117c-0.042-0.047-0.083-0.13-0.128-0.132 C0.361,93.172,0.312,93.249,0.265,93.292z M1.173,108.257c0.045,0.003,0.094-0.075,0.141-0.117c-0.042-0.047-0.083-0.13-0.128-0.132 c-0.045-0.002-0.094,0.075-0.141,0.117C1.088,108.173,1.128,108.255,1.173,108.257z M3.123,88.748 c0.047-0.042,0.095-0.085,0.142-0.127c-0.042-0.047-0.083-0.129-0.128-0.132c-0.045-0.003-0.094,0.075-0.141,0.117 C3.038,88.653,3.081,88.7,3.123,88.748z M1.315,94.087c-0.042-0.047-0.083-0.13-0.128-0.132c-0.045-0.002-0.094,0.075-0.141,0.118 c0.042,0.047,0.083,0.129,0.128,0.132C1.218,94.207,1.267,94.129,1.315,94.087z M0.527,95.029c0.099,0.009,0.206-0.073,0.31-0.117 c-0.059-0.078-0.111-0.213-0.178-0.221c-0.099-0.011-0.209,0.067-0.325,0.112C0.403,94.89,0.459,95.023,0.527,95.029z M0.273,199.863c-0.003,0.045,0.075,0.094,0.117,0.141l0.142-0.127c-0.042-0.047-0.085-0.094-0.127-0.142 C0.358,199.778,0.276,199.818,0.273,199.863z M0.923,211.198c-0.042-0.047-0.085-0.095-0.127-0.142 c-0.047,0.042-0.129,0.083-0.132,0.128c-0.003,0.045,0.075,0.094,0.117,0.141C0.828,211.282,0.876,211.24,0.923,211.198z M0.39,194.496c0.064-0.094,0.176-0.187,0.179-0.283c0.003-0.097-0.101-0.198-0.163-0.305c-0.068,0.103-0.178,0.197-0.18,0.293 C0.225,194.299,0.331,194.398,0.39,194.496z M0.664,196.35c-0.002,0.045,0.075,0.094,0.117,0.141 c0.047-0.042,0.094-0.085,0.142-0.127c-0.042-0.047-0.085-0.094-0.127-0.142C0.748,196.264,0.666,196.305,0.664,196.35z M0.796,214.969c-0.045-0.002-0.094,0.075-0.141,0.117c0.042,0.047,0.083,0.13,0.128,0.132c0.045,0.003,0.094-0.075,0.141-0.118 C0.882,215.054,0.841,214.972,0.796,214.969z M1.173,221.465c0.045,0.003,0.094-0.075,0.141-0.118 c-0.042-0.047-0.083-0.129-0.128-0.132c-0.045-0.002-0.094,0.075-0.141,0.118C1.088,221.38,1.128,221.462,1.173,221.465z M2.358,222.766c-0.047,0.042-0.13,0.083-0.132,0.128c-0.002,0.045,0.075,0.094,0.117,0.141c0.047-0.042,0.129-0.083,0.132-0.128 C2.478,222.862,2.401,222.813,2.358,222.766z M0.311,218.521c0.05,0.14,0.099,0.28,0.149,0.42l0,0 c0.139,0.047,0.278,0.094,0.417,0.142c-0.048-0.139-0.097-0.278-0.145-0.416C0.591,218.618,0.451,218.57,0.311,218.521z M1.428,189.08c-0.233-0.029-0.467-0.057-0.7-0.085l0,0c-0.139-0.047-0.278-0.094-0.417-0.142c0.048,0.139,0.097,0.278,0.145,0.417 c0.281,0.165,0.562,0.33,0.844,0.495C1.343,189.536,1.385,189.308,1.428,189.08z M0.533,191.288 c-0.042-0.047-0.083-0.13-0.128-0.132c-0.045-0.002-0.129,0.073-0.131,0.118c-0.002,0.045,0.075,0.094,0.118,0.141 C0.438,191.373,0.485,191.33,0.533,191.288z M0.391,184.78c0.047-0.042,0.095-0.085,0.142-0.127 c-0.042-0.047-0.085-0.095-0.127-0.142c-0.047,0.042-0.129,0.083-0.132,0.128C0.271,184.683,0.348,184.732,0.391,184.78z M1.577,215.36c-0.045-0.002-0.094,0.075-0.141,0.117c0.043,0.047,0.083,0.13,0.128,0.132c0.045,0.003,0.094-0.075,0.141-0.117 C1.662,215.444,1.622,215.362,1.577,215.36z M1.952,223.816c0.047-0.042,0.095-0.085,0.142-0.127 c-0.043-0.047-0.083-0.129-0.128-0.132c-0.045-0.002-0.129,0.073-0.131,0.118C1.832,223.719,1.91,223.768,1.952,223.816z M0.664,225.237c-0.002,0.045,0.075,0.094,0.117,0.141c0.047-0.042,0.094-0.085,0.142-0.127c-0.042-0.047-0.085-0.094-0.127-0.142 C0.748,225.152,0.666,225.192,0.664,225.237z M1.868,225.625c0.094,0.064,0.187,0.176,0.283,0.179 c0.097,0.003,0.198-0.101,0.305-0.163c-0.103-0.068-0.197-0.178-0.293-0.18C2.065,225.46,1.966,225.566,1.868,225.625z M2.022,221.283c0.139,0.047,0.278,0.094,0.417,0.142c-0.049-0.139-0.097-0.278-0.145-0.417c0.017-0.214,0.033-0.429,0.05-0.643 c-0.172,0.036-0.343,0.073-0.515,0.109C1.892,220.744,1.957,221.014,2.022,221.283L2.022,221.283z M1.235,219.449 c-0.047,0.139-0.094,0.278-0.142,0.417c0.139-0.048,0.278-0.097,0.417-0.145c0.048-0.14,0.097-0.281,0.145-0.421 C1.515,219.35,1.375,219.399,1.235,219.449L1.235,219.449z M1.055,224.065c-0.002,0.045,0.075,0.094,0.117,0.141 c0.047-0.042,0.129-0.083,0.132-0.128c0.003-0.045-0.075-0.094-0.117-0.141C1.14,223.979,1.058,224.02,1.055,224.065z M1.32,222.463 c-0.173-0.164-0.347-0.328-0.52-0.492c-0.118,0.201-0.236,0.402-0.354,0.603c-0.041,0.378-0.082,0.756-0.122,1.134 c0.141-0.292,0.283-0.583,0.424-0.875C0.938,222.71,1.129,222.586,1.32,222.463z M0.487,163.26 c-0.048-0.139-0.097-0.278-0.145-0.416c-0.091,0.091-0.182,0.183-0.271,0.275C0.209,163.165,0.348,163.213,0.487,163.26z M0.391,167.212c0.047-0.042,0.095-0.085,0.142-0.127c-0.042-0.047-0.083-0.129-0.128-0.132c-0.045-0.003-0.129,0.073-0.131,0.118 C0.271,167.116,0.348,167.165,0.391,167.212z M0.851,151.017c0.139,0.047,0.278,0.094,0.417,0.142 c-0.048-0.139-0.097-0.278-0.145-0.416c-0.14-0.049-0.28-0.097-0.421-0.145L0.851,151.017L0.851,151.017z M0.924,158.107 c-0.042-0.047-0.083-0.13-0.128-0.132c-0.045-0.002-0.094,0.075-0.141,0.118c0.043,0.047,0.083,0.129,0.128,0.132 C0.828,158.227,0.877,158.15,0.924,158.107z M1.365,161.39c-0.142-0.07-0.391-0.223-0.409-0.199 c-0.315,0.408-0.601,0.838-0.894,1.263l0,0c0.002,0.221,0.005,0.442,0.007,0.663c0.09-0.092,0.181-0.184,0.272-0.275 c0,0,0.015-0.128,0.015-0.128C0.693,162.274,1.029,161.832,1.365,161.39z M0.533,149.129c-0.042-0.047-0.085-0.094-0.127-0.142 c-0.047,0.042-0.129,0.083-0.132,0.128s0.075,0.094,0.117,0.141L0.533,149.129z M1.639,147.169 c-0.153-0.084-0.304-0.229-0.461-0.235c-0.155-0.006-0.316,0.128-0.553,0.236c0.237,0.108,0.398,0.242,0.553,0.235 C1.335,147.399,1.486,147.253,1.639,147.169z M0.524,153.031c0.003-0.045-0.075-0.094-0.117-0.141 c-0.047,0.042-0.13,0.083-0.132,0.128c-0.002,0.045,0.075,0.094,0.117,0.141C0.439,153.116,0.521,153.076,0.524,153.031z M0.391,156.673c0.047-0.042,0.095-0.085,0.142-0.127c-0.042-0.047-0.085-0.095-0.127-0.142c-0.047,0.042-0.129,0.083-0.132,0.128 C0.271,156.577,0.348,156.626,0.391,156.673z M0.405,149.777c-0.045-0.003-0.129,0.073-0.131,0.118s0.075,0.094,0.118,0.141 c0.047-0.042,0.095-0.085,0.142-0.127C0.49,149.861,0.45,149.779,0.405,149.777z M0.459,159.408 c0.168-0.019,0.407-0.028,0.476-0.135c0.066-0.104-0.044-0.32-0.093-0.568c-0.206,0.176-0.364,0.28-0.47,0.421 C0.335,159.176,0.438,159.411,0.459,159.408z M0.781,185.95c0.047-0.042,0.095-0.085,0.142-0.127 c-0.042-0.047-0.083-0.129-0.128-0.132c-0.045-0.003-0.129,0.073-0.131,0.118C0.661,185.853,0.739,185.902,0.781,185.95z M0.393,164.471c0.045,0.002,0.094-0.075,0.141-0.118c-0.042-0.047-0.083-0.129-0.128-0.132c-0.045-0.002-0.094,0.075-0.141,0.118 C0.307,164.386,0.348,164.468,0.393,164.471z M0.796,173.98c-0.045-0.002-0.094,0.075-0.141,0.118 c0.043,0.047,0.083,0.13,0.128,0.132c0.045,0.003,0.094-0.075,0.141-0.118C0.882,174.065,0.841,173.983,0.796,173.98z M0.392,183.607c0.047-0.042,0.129-0.083,0.132-0.128c0.003-0.045-0.075-0.094-0.117-0.141c-0.047,0.042-0.13,0.083-0.132,0.128 C0.272,183.511,0.349,183.56,0.392,183.607z M0.274,165.899c-0.002,0.045,0.075,0.094,0.117,0.142 c0.047-0.042,0.129-0.083,0.132-0.128c0.003-0.045-0.075-0.094-0.117-0.141C0.359,165.814,0.277,165.855,0.274,165.899z M0.533,172.551c-0.042-0.047-0.085-0.095-0.127-0.142c-0.047,0.042-0.129,0.083-0.132,0.128c-0.003,0.045,0.075,0.094,0.117,0.141 C0.438,172.636,0.485,172.594,0.533,172.551z M0.923,176.845c-0.042-0.047-0.085-0.094-0.127-0.142 c-0.047,0.042-0.129,0.083-0.132,0.128c-0.002,0.045,0.075,0.094,0.117,0.141C0.828,176.93,0.876,176.888,0.923,176.845z M0.748,178.077L0.748,178.077c0,0-0.004-0.135-0.004-0.135c0.042-0.141,0.083-0.281,0.125-0.422 c-0.139,0.053-0.278,0.105-0.417,0.157c0,0,0,0,0,0c0,0.22,0,0.44,0,0.66c0.133,0.178,0.266,0.356,0.398,0.534 C0.816,178.608,0.782,178.343,0.748,178.077z M4.36,219.054c0.001,0.223,0.001,0.447,0.002,0.67c0,0,0,0,0,0 c0.222-0.002,0.444-0.003,0.666-0.005c0.051-0.274,0.103-0.548,0.154-0.823C4.908,218.949,4.634,219.002,4.36,219.054 C4.36,219.054,4.36,219.054,4.36,219.054z M4.131,31.03c-0.002,0.097,0.104,0.196,0.163,0.295c0.015-0.021,0.031-0.043,0.046-0.064 l-0.004-0.472c-0.009-0.014-0.018-0.028-0.026-0.042C4.246,30.841,4.133,30.934,4.131,31.03z M5.339,179.563 c0.043,0.047,0.083,0.129,0.128,0.132c0.001,0,0.003-0.002,0.004-0.002l-0.002-0.24C5.428,179.462,5.383,179.524,5.339,179.563z M4.177,23.416c-0.002,0.041,0.061,0.085,0.104,0.129L4.28,23.31C4.233,23.345,4.179,23.379,4.177,23.416z M4.305,26.602 l-0.002-0.223c-0.029,0.085-0.058,0.169-0.086,0.254C4.246,26.623,4.275,26.612,4.305,26.602z M4.178,33.174 c-0.002,0.045,0.075,0.094,0.117,0.141c0.017-0.015,0.039-0.03,0.06-0.046l-0.001-0.182c-0.015-0.014-0.032-0.028-0.044-0.042 C4.263,33.088,4.18,33.129,4.178,33.174z M4.363,52.644L4.363,52.644c0.047,0.015,0.093,0.031,0.14,0.047l-0.009-1.146 c-0.054,0.003-0.097,0.006-0.097,0.014C4.364,51.918,4.368,52.281,4.363,52.644z M4.177,33.956 c-0.002,0.045,0.075,0.094,0.118,0.141c0.022-0.02,0.045-0.04,0.067-0.06L4.36,33.885l-0.051-0.057 C4.262,33.87,4.179,33.911,4.177,33.956z M4.36,40.539c0.017,0.052,0.035,0.104,0.052,0.156l-0.004-0.506 c-0.065-0.022-0.129-0.044-0.194-0.066C4.263,40.261,4.311,40.4,4.36,40.539z M3.526,35.593c0.279,0.088,0.558,0.177,0.838,0.265 l0,0c0.004,0.001,0.008,0.003,0.011,0.004l-0.003-0.345C4.13,35.45,3.889,35.382,3.644,35.33 C3.624,35.326,3.566,35.501,3.526,35.593z M3.824,19.823c0.05,0.14,0.099,0.28,0.149,0.42l0,0c0.095,0.032,0.189,0.064,0.283,0.097 l-0.003-0.344c-0.003-0.009-0.006-0.018-0.009-0.027C4.105,19.92,3.964,19.871,3.824,19.823z M5.481,224.718 c-0.047,0.042-0.13,0.083-0.132,0.128c-0.002,0.045,0.075,0.094,0.117,0.142c0.047-0.042,0.129-0.083,0.132-0.128 C5.601,224.814,5.524,224.765,5.481,224.718z M0.273,204.156c-0.002,0.045,0.075,0.094,0.118,0.141 c0.047-0.042,0.095-0.085,0.142-0.127c-0.042-0.047-0.083-0.13-0.128-0.132C0.36,204.035,0.276,204.111,0.273,204.156z M4.11,1.008 C4.022,1.057,3.935,1.116,3.848,1.162C3.936,1.214,4.024,1.277,4.112,1.33L4.11,1.008z M2.892,2.753 c0.06,0.019,0.244-0.143,0.253-0.235C3.157,2.39,3.059,2.25,2.958,1.984c-0.2,0.244-0.355,0.36-0.386,0.503 C2.556,2.554,2.762,2.714,2.892,2.753z M4.272,22.327l-0.001-0.143c-0.019-0.006-0.038-0.013-0.056-0.02 C4.234,22.219,4.253,22.273,4.272,22.327z M3.866,61.859c0.234-0.206,0.468-0.412,0.703-0.619l-0.005-0.601 c-0.424,0.167-0.849,0.334-1.273,0.501C3.483,61.379,3.674,61.619,3.866,61.859z M4.244,18.651 c-0.026,0.025-0.052,0.056-0.077,0.079c0.026,0.029,0.052,0.058,0.078,0.087L4.244,18.651z M4.173,9.357 C4.172,9.358,4.17,9.36,4.168,9.362C4.17,9.364,4.172,9.367,4.173,9.369L4.173,9.357z M4.2,12.839 c-0.011,0.012-0.022,0.025-0.033,0.035c0.011,0.012,0.022,0.025,0.033,0.037L4.2,12.839z M5.139,170.653 c-0.047,0.139-0.095,0.278-0.142,0.417c0.136-0.047,0.271-0.095,0.407-0.142l-0.002-0.319 C5.314,170.623,5.227,170.638,5.139,170.653L5.139,170.653z M5.034,122.278l-0.001-0.182c-0.028,0.026-0.056,0.058-0.083,0.083 C4.977,122.21,5.005,122.25,5.034,122.278z M1.695,77.689c0.003-0.045-0.075-0.094-0.117-0.141c-0.047,0.042-0.13,0.083-0.132,0.128 c-0.002,0.045,0.075,0.094,0.117,0.142C1.61,77.775,1.692,77.734,1.695,77.689z M4.722,123.604c0.013,0.083,0.235,0.221,0.288,0.193 c0.013-0.007,0.023-0.023,0.035-0.031l-0.004-0.514c-0.076-0.033-0.147-0.064-0.216-0.094 C4.785,123.308,4.701,123.464,4.722,123.604z M4.523,111.255c0.019,0.16,0.114,0.312,0.18,0.467 c0.077-0.051,0.156-0.103,0.249-0.165l-0.003-0.417c-0.045-0.026-0.091-0.056-0.135-0.061C4.72,111.067,4.517,111.203,4.523,111.255 z M2.714,8.331C2.691,8.388,2.845,8.584,2.936,8.597c0.131,0.019,0.277-0.072,0.555-0.159c-0.237-0.212-0.346-0.376-0.487-0.41 C2.93,8.01,2.763,8.204,2.714,8.331z M5.151,146.039c-0.18,0.136-0.36,0.272-0.54,0.407c0.202-0.028,0.404-0.055,0.606-0.083 l-0.008-1.075c-0.045-0.058-0.09-0.116-0.135-0.174C5.1,145.423,5.126,145.731,5.151,146.039z M4.457,103.447 c0.006,0.156,0.152,0.307,0.236,0.46c0.067-0.121,0.154-0.241,0.198-0.363l-0.002-0.225c-0.041-0.121-0.117-0.25-0.197-0.425 C4.584,103.131,4.45,103.292,4.457,103.447z M4.958,128.816c-0.003,0.045,0.075,0.094,0.117,0.141 c0.003-0.003,0.006-0.006,0.009-0.009l-0.002-0.255C5.035,128.734,4.96,128.773,4.958,128.816z M5.021,141.76 c-0.139-0.047-0.278-0.094-0.417-0.142c0.048,0.139,0.097,0.278,0.145,0.417c0.145,0.024,0.29,0.047,0.435,0.071l-0.002-0.221 L5.021,141.76L5.021,141.76z M3.969,79.966c0.248,0.041,0.495,0.081,0.743,0.121l0-0.033c-0.157-0.121-0.314-0.242-0.471-0.363 C4.151,79.783,4.06,79.875,3.969,79.966z M4.653,72.29l-0.001-0.116c-0.015,0.044-0.03,0.088-0.045,0.132 C4.622,72.301,4.638,72.295,4.653,72.29z M4.667,74.185l-0.002-0.208c-0.014,0.089-0.029,0.178-0.043,0.266L4.667,74.185z M4.567,91.34c-0.003,0.045,0.075,0.094,0.118,0.141c0.038-0.034,0.076-0.068,0.113-0.102l0-0.057 c-0.033-0.037-0.066-0.073-0.099-0.11C4.652,91.255,4.57,91.295,4.567,91.34z M4.69,79.039c0.005-0.015,0.01-0.03,0.014-0.045 l-0.009-1.137c-0.16,0.339-0.32,0.677-0.48,1.016C4.373,78.928,4.531,78.983,4.69,79.039z M4.638,70.355L4.637,70.18 c-0.026,0.025-0.052,0.056-0.078,0.079C4.585,70.289,4.611,70.326,4.638,70.355z M4.567,90.559 c-0.002,0.045,0.075,0.094,0.117,0.141c0.036-0.032,0.072-0.065,0.107-0.097l-0.001-0.069C4.761,90.5,4.73,90.466,4.699,90.431 C4.652,90.474,4.57,90.515,4.567,90.559z M3.824,79.549c0.048,0.139,0.097,0.278,0.145,0.417c0.091-0.091,0.182-0.183,0.272-0.275 C4.102,79.644,3.963,79.597,3.824,79.549z M4.626,68.773l-0.001-0.147c-0.022,0.024-0.045,0.051-0.067,0.071L4.626,68.773z M4.328,29.734l-0.001-0.155c-0.025,0.013-0.049,0.026-0.073,0.036C4.279,29.65,4.304,29.694,4.328,29.734z M1.576,20.564 c-0.045-0.003-0.094,0.075-0.141,0.117c0.042,0.047,0.085,0.094,0.127,0.142c0.047-0.042,0.095-0.085,0.142-0.127 C1.661,20.649,1.621,20.567,1.576,20.564z M1.658,28.192c-0.048-0.139-0.097-0.278-0.145-0.417 c-0.091,0.091-0.182,0.183-0.271,0.275C1.38,28.097,1.519,28.145,1.658,28.192z M1.611,24.134c0.099-0.087,0.199-0.174,0.298-0.261 l-0.4-0.535C1.543,23.603,1.577,23.869,1.611,24.134z M1.173,17.301c0.045,0.003,0.094-0.075,0.141-0.118 c-0.042-0.047-0.083-0.129-0.128-0.132c-0.045-0.002-0.094,0.075-0.141,0.118C1.088,17.217,1.128,17.299,1.173,17.301z M0.917,26.714c0.099,0.009,0.207-0.073,0.31-0.117c-0.059-0.078-0.111-0.213-0.178-0.221c-0.099-0.011-0.209,0.067-0.325,0.112 C0.794,26.575,0.85,26.708,0.917,26.714z M1.127,18.786c0.078-0.059,0.213-0.111,0.221-0.178c0.012-0.099-0.067-0.208-0.112-0.325 c-0.086,0.069-0.22,0.126-0.226,0.193C1.002,18.575,1.084,18.682,1.127,18.786z M3.516,9.494C3.56,9.496,3.609,9.419,3.657,9.376 c-0.042-0.047-0.083-0.13-0.128-0.132C3.484,9.242,3.435,9.319,3.388,9.362C3.43,9.409,3.471,9.491,3.516,9.494z M0.796,31.105 c-0.045-0.002-0.094,0.075-0.141,0.117c0.042,0.047,0.083,0.129,0.128,0.132c0.045,0.003,0.094-0.075,0.141-0.117 C0.882,31.19,0.841,31.107,0.796,31.105z M0.795,20.564c-0.045-0.003-0.094,0.075-0.141,0.118c0.042,0.047,0.085,0.094,0.127,0.141 c0.047-0.042,0.095-0.085,0.142-0.127C0.88,20.649,0.84,20.567,0.795,20.564z M1.187,24.848c-0.047,0.042-0.13,0.083-0.132,0.128 c-0.002,0.045,0.075,0.094,0.117,0.141c0.047-0.042,0.129-0.083,0.132-0.128C1.307,24.945,1.23,24.895,1.187,24.848z M1.562,35.268 c0.047-0.042,0.094-0.085,0.142-0.128c-0.042-0.047-0.085-0.094-0.127-0.142c-0.047,0.042-0.129,0.083-0.132,0.128 C1.442,35.172,1.519,35.221,1.562,35.268z M1.704,29.676c-0.042-0.047-0.085-0.095-0.127-0.142 c-0.047,0.042-0.129,0.083-0.132,0.128c-0.003,0.045,0.075,0.094,0.117,0.141C1.609,29.76,1.656,29.718,1.704,29.676z M1.446,50.74 c-0.002,0.045,0.075,0.094,0.117,0.142c0.047-0.043,0.129-0.083,0.132-0.128c0.003-0.045-0.075-0.094-0.117-0.141 C1.53,50.655,1.448,50.696,1.446,50.74z M1.562,39.561c0.047-0.042,0.095-0.085,0.142-0.127c-0.042-0.047-0.083-0.129-0.128-0.132 c-0.045-0.003-0.094,0.075-0.141,0.117C1.477,39.466,1.519,39.514,1.562,39.561z M1.562,80.159c0.047-0.042,0.095-0.085,0.142-0.127 c-0.042-0.047-0.083-0.129-0.128-0.132c-0.045-0.003-0.094,0.075-0.141,0.118C1.477,80.065,1.519,80.112,1.562,80.159z M1.562,59.079c0.047-0.042,0.095-0.085,0.142-0.127c-0.042-0.047-0.083-0.129-0.128-0.132c-0.045-0.003-0.094,0.075-0.141,0.117 C1.477,58.985,1.519,59.032,1.562,59.079z M1.695,57c0.003-0.045-0.075-0.094-0.117-0.141c-0.047,0.042-0.13,0.083-0.132,0.128 c-0.002,0.045,0.075,0.094,0.117,0.141C1.61,57.085,1.692,57.045,1.695,57z M1.446,59.719c-0.002,0.045,0.075,0.094,0.117,0.141 c0.047-0.042,0.129-0.083,0.132-0.128c0.003-0.045-0.075-0.094-0.117-0.141C1.53,59.634,1.448,59.674,1.446,59.719z M1.562,45.807 c0.047-0.042,0.095-0.085,0.142-0.127c-0.042-0.047-0.083-0.129-0.128-0.132c-0.045-0.002-0.094,0.075-0.141,0.118 C1.477,45.712,1.519,45.76,1.562,45.807z M2.253,56.133l0.158,0.417c0,0,0,0,0,0c0.22,0,0.44,0,0.659,0 c0.054-0.138,0.107-0.276,0.161-0.415c-0.141,0.04-0.281,0.08-0.421,0.119l0,0l-0.135,0.004C2.534,56.216,2.394,56.175,2.253,56.133 z M3.854,49.636c-0.091,0.091-0.182,0.183-0.271,0.275C3.722,49.958,3.861,50.006,4,50.053C3.951,49.914,3.903,49.775,3.854,49.636z M3.655,54.659c-0.042-0.047-0.085-0.094-0.127-0.142C3.481,54.56,3.399,54.6,3.396,54.646c-0.003,0.045,0.075,0.094,0.117,0.141 L3.655,54.659z M2.749,68.179c-0.047,0.042-0.13,0.083-0.132,0.128c-0.002,0.045,0.075,0.094,0.117,0.142 c0.047-0.042,0.129-0.083,0.132-0.128C2.869,68.276,2.791,68.227,2.749,68.179z M1.24,28.05c0.09-0.092,0.181-0.183,0.272-0.275 c-0.14-0.048-0.28-0.097-0.421-0.145C1.141,27.771,1.191,27.91,1.24,28.05z M3.075,17.115L3.075,17.115 c0.047-0.14,0.094-0.278,0.142-0.417c-0.139,0.049-0.278,0.097-0.416,0.145c-0.174,0.135-0.348,0.27-0.522,0.405 C2.544,17.204,2.81,17.159,3.075,17.115z M3.175,49.643c-0.238,0.355-0.497,0.699-0.696,1.075c-0.039,0.074,0.152,0.271,0.237,0.411 c0.245-0.4,0.489-0.8,0.734-1.199c0,0,0.133-0.018,0.133-0.018c0.09-0.092,0.181-0.184,0.272-0.275 c-0.087-0.292-0.174-0.583-0.261-0.875C3.454,49.055,3.314,49.349,3.175,49.643z M3.256,33.968c0.002-0.045-0.075-0.094-0.117-0.141 c-0.047,0.042-0.13,0.083-0.132,0.128s0.075,0.094,0.117,0.141C3.172,34.053,3.254,34.013,3.256,33.968z M3.006,36.298 c-0.002,0.045,0.075,0.094,0.117,0.141c0.047-0.042,0.094-0.085,0.142-0.127c-0.042-0.047-0.085-0.095-0.127-0.142 C3.091,36.212,3.008,36.253,3.006,36.298z M2.607,58.939c0.043,0.047,0.083,0.13,0.128,0.132c0.045,0.003,0.094-0.075,0.141-0.117 c-0.042-0.047-0.083-0.13-0.128-0.132C2.703,58.819,2.654,58.896,2.607,58.939z M2.41,80.473L2.28,81.27 c0.135-0.175,0.27-0.35,0.405-0.525l0,0c0.047-0.139,0.094-0.278,0.142-0.417C2.688,80.376,2.549,80.425,2.41,80.473z M1.968,70.202 c-0.087,0.15-0.24,0.299-0.242,0.45c-0.003,0.153,0.145,0.308,0.226,0.462c0.098-0.142,0.196-0.284,0.308-0.446 C2.153,70.497,2.06,70.349,1.968,70.202z M2.617,70.649c-0.002,0.045,0.075,0.094,0.117,0.142c0.047-0.042,0.129-0.083,0.132-0.128 c0.003-0.045-0.075-0.094-0.118-0.141C2.701,70.564,2.619,70.604,2.617,70.649z M3.006,65.576c-0.002,0.045,0.075,0.094,0.117,0.141 c0.047-0.042,0.094-0.085,0.142-0.127c-0.042-0.047-0.085-0.095-0.127-0.142C3.091,65.49,3.008,65.531,3.006,65.576z M1.826,82.752 c0.042,0.047,0.083,0.129,0.128,0.132c0.045,0.002,0.094-0.075,0.141-0.118c-0.042-0.047-0.083-0.129-0.128-0.132 C1.922,82.632,1.873,82.709,1.826,82.752z M2.406,76.183L2.406,76.183c-0.047,0.139-0.094,0.278-0.142,0.417 c0.139-0.049,0.278-0.097,0.416-0.145c0.174-0.135,0.348-0.27,0.522-0.405C2.938,76.094,2.672,76.138,2.406,76.183z M2.747,63.895 c-0.045-0.002-0.094,0.075-0.141,0.118c0.042,0.047,0.085,0.094,0.127,0.142c0.047-0.042,0.095-0.085,0.142-0.127 C2.832,63.98,2.792,63.897,2.747,63.895z M2.733,71.571c0.047-0.042,0.095-0.085,0.142-0.127c-0.042-0.047-0.083-0.13-0.128-0.132 c-0.045-0.003-0.094,0.075-0.141,0.117C2.648,71.477,2.69,71.524,2.733,71.571z M5.078,128.102l0-0.041 c-0.022,0.017-0.045,0.035-0.067,0.052C5.033,128.11,5.056,128.106,5.078,128.102z M0,86.216v0.243 c0.031-0.092,0.063-0.184,0.094-0.276C0.063,86.194,0.031,86.205,0,86.216z M0,84.24v0.165c0.037-0.027,0.075-0.055,0.114-0.077 C0.075,84.302,0.037,84.27,0,84.24z M0.851,88.557c0.139,0.047,0.278,0.094,0.417,0.142c-0.048-0.139-0.097-0.278-0.145-0.417 l-1.058,0.001c0.092,0.09,0.184,0.181,0.275,0.272C0.509,88.557,0.68,88.557,0.851,88.557L0.851,88.557z M0.064,88.285 C0.043,88.348,0.021,88.411,0,88.474v0.201c0.113-0.039,0.226-0.079,0.339-0.118C0.248,88.465,0.156,88.375,0.064,88.285z M0,80.361 v0.249c0.032-0.094,0.064-0.188,0.096-0.282C0.064,80.339,0.032,80.35,0,80.361z M0.142,60.515C0.1,60.468,0.057,60.42,0.015,60.373 C0.011,60.377,0.005,60.38,0,60.384v0.258l0,0C0.048,60.6,0.095,60.557,0.142,60.515z M0.07,72.552 c0.139,0.047,0.278,0.094,0.417,0.142c-0.048-0.139-0.097-0.278-0.145-0.416C0.227,72.239,0.114,72.199,0,72.16v0.197L0.07,72.552 L0.07,72.552z M0,62.418v0.273c0.063-0.038,0.116-0.071,0.196-0.12C0.117,62.515,0.058,62.465,0,62.418z M0.134,71.443 c0.002-0.045-0.075-0.094-0.118-0.141C0.011,71.306,0.005,71.31,0,71.314v0.256c0,0,0.001,0.001,0.002,0.001 C0.049,71.529,0.131,71.488,0.134,71.443z M0.142,61.296c-0.042-0.047-0.085-0.094-0.127-0.142C0.011,61.157,0.005,61.161,0,61.165 v0.258l0,0C0.048,61.381,0.095,61.338,0.142,61.296z M0.487,106.266c-0.048-0.139-0.097-0.278-0.145-0.417 c-0.091,0.091-0.182,0.183-0.271,0.275C0.209,106.171,0.348,106.219,0.487,106.266z M0.872,101.434 c-0.265,0.034-0.53,0.069-0.795,0.103c0,0-0.039,0.001-0.077,0.002v0.293c0.113,0,0.226,0,0.338,0 C0.516,101.699,0.694,101.567,0.872,101.434z M0.341,105.85c-0.114-0.039-0.227-0.079-0.341-0.118v0.197l0.069,0.196 C0.16,106.032,0.25,105.941,0.341,105.85z M0.487,119.929c-0.048-0.139-0.097-0.278-0.145-0.416 c-0.091,0.091-0.182,0.183-0.271,0.275C0.209,119.834,0.348,119.882,0.487,119.929z M0.487,100.41 c-0.048-0.139-0.097-0.278-0.145-0.416c-0.091,0.091-0.182,0.183-0.271,0.275C0.209,100.316,0.348,100.363,0.487,100.41z M0.341,99.994L0,99.995v0.273l0.069,0.001C0.16,100.177,0.25,100.085,0.341,99.994z M0.484,95.943l-0.42,0.149l0,0 C0.043,96.155,0.021,96.218,0,96.281v0.201c0.113-0.04,0.226-0.079,0.339-0.118L0.484,95.943z M0,91.774v0.653 c0.134-0.107,0.263-0.211,0.424-0.34C0.257,91.972,0.107,91.849,0,91.774z M2.934,0.262C2.893,0.173,2.854,0.087,2.815,0H2.716 C2.647,0.041,2.577,0.082,2.572,0.129C2.564,0.229,2.645,0.336,2.689,0.44C2.768,0.382,2.847,0.325,2.934,0.262z M0.068,17.233 C0.045,17.278,0.023,17.323,0,17.368v0.819c0.114-0.227,0.229-0.455,0.343-0.682C0.251,17.415,0.159,17.324,0.068,17.233z M0.134,23.818c0.002-0.045-0.075-0.094-0.118-0.141C0.011,23.681,0.005,23.685,0,23.689v0.256c0,0,0.001,0.001,0.002,0.001 C0.049,23.904,0.131,23.863,0.134,23.818z M0.45,56.164c-0.102-0.047-0.204-0.095-0.31-0.144C0.091,56.086,0.046,56.146,0,56.207 v0.076c0.09,0.046,0.182,0.106,0.268,0.099C0.334,56.377,0.39,56.241,0.45,56.164z M0.484,17.088 c-0.139,0.048-0.278,0.097-0.416,0.145c0.091,0.091,0.183,0.182,0.274,0.272C0.39,17.366,0.437,17.227,0.484,17.088z M0.341,119.513 c-0.114-0.039-0.227-0.079-0.341-0.118v0.197l0.069,0.196C0.16,119.695,0.25,119.604,0.341,119.513z M0.142,12.109 c-0.042-0.047-0.085-0.094-0.127-0.142C0.011,11.971,0.005,11.975,0,11.978v0.258l0,0C0.048,12.194,0.095,12.151,0.142,12.109z M0.142,5.082C0.1,5.035,0.057,4.988,0.015,4.94C0.011,4.944,0.005,4.948,0,4.952v0.258l0,0L0.142,5.082z M0.143,29.285 c-0.042-0.047-0.083-0.13-0.128-0.132c-0.005,0-0.01,0.008-0.016,0.009v0.238c0.001,0,0.001,0.002,0.002,0.002 C0.047,29.405,0.096,29.328,0.143,29.285z M0.143,7.034C0.101,6.987,0.06,6.905,0.016,6.902C0.011,6.902,0.005,6.91,0,6.911V7.15 c0.001,0,0.001,0.002,0.002,0.002C0.047,7.154,0.096,7.077,0.143,7.034z M0.142,28.503c-0.042-0.047-0.083-0.129-0.128-0.132 c-0.005,0-0.01,0.007-0.014,0.009v0.25c0,0,0,0,0,0C0.048,28.588,0.095,28.546,0.142,28.503z M0,43.276v0.239 c0.031-0.091,0.063-0.181,0.094-0.272L0,43.276z M0.201,45.025C0.13,44.971,0.065,44.923,0,44.873v0.424 c0.02,0.012,0.041,0.025,0.057,0.037C0.105,45.232,0.152,45.13,0.201,45.025z M0.484,34.655c-0.14,0.049-0.28,0.099-0.42,0.149l0,0 C0.043,34.867,0.021,34.93,0,34.993v0.201c0.113-0.039,0.226-0.079,0.339-0.118L0.484,34.655z M0.138,53.649 c0.099,0.011,0.209-0.067,0.325-0.112c-0.069-0.087-0.126-0.22-0.193-0.225C0.184,53.304,0.091,53.364,0,53.408v0.084 C0.044,53.565,0.087,53.643,0.138,53.649z M0.142,46.852C0.1,46.805,0.057,46.757,0.015,46.71C0.011,46.714,0.005,46.717,0,46.721 v0.258l0,0C0.048,46.937,0.095,46.894,0.142,46.852z M0.455,36.247c0.132,0.13,0.264,0.261,0.396,0.391l0,0 c0.139,0.047,0.278,0.094,0.417,0.142c-0.048-0.139-0.097-0.278-0.145-0.417c-0.13-0.131-0.26-0.263-0.39-0.395L0,35.851v0.04 L0.455,36.247C0.454,36.247,0.454,36.247,0.455,36.247z M4.037,112.432c0.003-0.045-0.075-0.094-0.117-0.141 c-0.047,0.042-0.13,0.083-0.132,0.128c-0.002,0.045,0.075,0.094,0.117,0.141C3.953,112.518,4.035,112.477,4.037,112.432z M0.202,42.363c-0.064-0.102-0.124-0.199-0.185-0.296C0.012,42.074,0.005,42.081,0,42.088v0.556c0,0,0,0,0,0.001 C0.067,42.552,0.133,42.459,0.202,42.363z M0.142,204.952c-0.042-0.047-0.085-0.095-0.127-0.142 c-0.004,0.004-0.01,0.008-0.015,0.011v0.258c0,0,0,0,0,0C0.048,205.037,0.095,204.994,0.142,204.952z M0.07,220.502 c0.139,0.047,0.278,0.095,0.417,0.142c-0.048-0.139-0.097-0.278-0.145-0.416L0,220.229v0.273L0.07,220.502L0.07,220.502z M0.143,211.198c-0.042-0.047-0.083-0.129-0.128-0.132c-0.005,0-0.01,0.008-0.016,0.009v0.238c0.001,0,0.001,0.002,0.002,0.002 C0.047,211.318,0.096,211.24,0.143,211.198z M0.46,208.402L0.46,208.402c0.14,0.047,0.278,0.094,0.417,0.141 c-0.048-0.139-0.097-0.278-0.145-0.416c0,0,0.013-0.126,0.013-0.126c0.046-0.138,0.091-0.276,0.137-0.414l-0.415,0.132l0,0 c0,0-0.134,0.003-0.134,0.004c-0.089,0.096-0.179,0.192-0.268,0.288C0.197,208.141,0.328,208.271,0.46,208.402z M0.201,214.055 c-0.071-0.053-0.136-0.102-0.201-0.151v0.423c0.02,0.012,0.041,0.025,0.058,0.037C0.105,214.262,0.152,214.16,0.201,214.055z M0.333,207.722c-0.111-0.052-0.222-0.103-0.333-0.155v0.368c0.022,0.025,0.044,0.05,0.065,0.075 C0.154,207.915,0.244,207.818,0.333,207.722z M0.134,198.704c0.002-0.045-0.075-0.094-0.117-0.141 c-0.005,0.004-0.011,0.008-0.016,0.012v0.256c0,0,0.001,0.001,0.001,0.001C0.049,198.79,0.131,198.749,0.134,198.704z M5.348,180.344c-0.002,0.045,0.075,0.094,0.117,0.141l0.012-0.01l-0.002-0.255C5.427,180.261,5.351,180.301,5.348,180.344z M0.136,197.696c0.099,0.009,0.207-0.073,0.311-0.117c-0.059-0.078-0.111-0.213-0.178-0.221c-0.082-0.01-0.173,0.042-0.269,0.086 v0.109C0.045,197.624,0.089,197.692,0.136,197.696z M0.46,201.765c0.139,0.047,0.278,0.095,0.417,0.142 c-0.048-0.139-0.097-0.278-0.145-0.416c-0.123-0.806-0.355-1.21-0.732-1.072v1.147L0.46,201.765L0.46,201.765z M0,221.607v0.258 c0,0,0,0,0,0c0.047-0.042,0.094-0.085,0.142-0.127c-0.042-0.047-0.085-0.095-0.127-0.142C0.011,221.6,0.005,221.603,0,221.607z M5.741,215.142l-0.003-0.396c-0.153-0.012-0.306-0.024-0.458-0.035c0.036,0.172,0.073,0.343,0.109,0.515L5.741,215.142z M5.531,199.029c0.03,0.038,0.059,0.076,0.089,0.114l-0.003-0.452c-0.077-0.026-0.154-0.052-0.231-0.079 C5.434,198.751,5.482,198.89,5.531,199.029z M5.59,195.328l-0.002-0.281c-0.07,0.034-0.14,0.088-0.21,0.13 C5.448,195.227,5.519,195.277,5.59,195.328z M0.142,196.754c-0.042-0.047-0.085-0.095-0.127-0.142 c-0.004,0.004-0.01,0.008-0.015,0.011v0.257l0,0C0.048,196.839,0.095,196.797,0.142,196.754z M5.78,220.232l-0.001-0.123 c-0.02,0.018-0.04,0.035-0.041,0.054C5.737,220.185,5.756,220.208,5.78,220.232z M1.13,225.972 c-0.038,0.088-0.093,0.177-0.108,0.263H1.33c0.007-0.027,0.022-0.055,0.019-0.081C1.342,226.086,1.208,226.032,1.13,225.972z M5.809,223.985c-0.036,0.026-0.069,0.053-0.07,0.081c-0.002,0.031,0.035,0.064,0.072,0.098L5.809,223.985z M5.792,221.805 l-0.001-0.148c-0.028,0.022-0.051,0.044-0.053,0.068C5.737,221.75,5.762,221.777,5.792,221.805z M0,129.161v0.141 c0.024-0.012,0.048-0.024,0.073-0.033C0.047,129.236,0.024,129.198,0,129.161z M0.142,195.193c-0.042-0.047-0.085-0.095-0.127-0.142 c-0.004,0.004-0.01,0.008-0.015,0.011v0.258l0,0C0.048,195.277,0.095,195.235,0.142,195.193z M0.133,143.272 c0.003-0.045-0.075-0.094-0.117-0.141c-0.005,0.004-0.011,0.008-0.016,0.012v0.256c0,0,0.001,0.001,0.001,0.001 C0.049,143.357,0.131,143.316,0.133,143.272z M0,154.396v0.243c0.032,0.011,0.064,0.022,0.096,0.033 C0.064,154.58,0.032,154.488,0,154.396z M0.07,140.086c0.139,0.047,0.278,0.094,0.417,0.142c-0.048-0.139-0.097-0.277-0.145-0.416 c-0.047,0.047-0.093,0.094-0.139,0.141c0.046-0.047,0.092-0.094,0.139-0.141c-0.114-0.146-0.227-0.293-0.341-0.439v0.301 L0.07,140.086L0.07,140.086z M0.143,130.001c-0.042-0.047-0.083-0.13-0.128-0.132c-0.005,0-0.01,0.008-0.016,0.009v0.239 c0.001,0,0.001,0.001,0.002,0.002C0.047,130.121,0.096,130.043,0.143,130.001z M0.142,123.753c-0.042-0.047-0.083-0.129-0.128-0.132 c-0.005,0-0.01,0.007-0.014,0.009v0.25c0,0,0,0,0,0C0.048,123.838,0.095,123.796,0.142,123.753z M0.46,122.52 c0.139,0.047,0.278,0.095,0.417,0.142c-0.048-0.139-0.097-0.278-0.145-0.416l0.002-0.121c0,0,0,0,0,0 c0.047-0.139,0.094-0.278,0.142-0.417c-0.139,0.048-0.278,0.097-0.416,0.145c-0.153,0.167-0.305,0.333-0.458,0.5v0.193 C0.153,122.537,0.307,122.529,0.46,122.52L0.46,122.52z M0.882,157.383c-0.55-0.158-0.712-0.241-0.87-0.234 c-0.003,0-0.008,0.006-0.012,0.007v0.507c0.047,0.042,0.094,0.073,0.134,0.07C0.309,157.72,0.475,157.584,0.882,157.383z M0.134,136.635c0.002-0.045-0.075-0.094-0.117-0.141c-0.005,0.004-0.011,0.008-0.016,0.012v0.256c0,0,0.001,0.001,0.001,0.001 C0.049,136.721,0.131,136.68,0.134,136.635z M0.345,142.424c0-0.22,0-0.44,0-0.66c-0.115-0.044-0.23-0.089-0.345-0.133v0.22 c0.016,0.058,0.033,0.116,0.049,0.174c0,0,0.004,0.135,0.004,0.135c-0.018,0.006-0.036,0.011-0.053,0.017v0.337 C0.115,142.483,0.23,142.456,0.345,142.424C0.345,142.424,0.345,142.424,0.345,142.424z M0.464,187.323 c-0.117-0.046-0.226-0.126-0.325-0.116c-0.051,0.005-0.095,0.081-0.139,0.152v0.089c0.09,0.045,0.18,0.104,0.266,0.098 C0.334,187.541,0.392,187.409,0.464,187.323z M0.134,192.068c0.002-0.045-0.075-0.094-0.117-0.141 c-0.005,0.004-0.011,0.008-0.016,0.012v0.256c0,0,0.001,0.001,0.001,0.001C0.049,192.153,0.131,192.113,0.134,192.068z M0.134,193.239c0.002-0.045-0.075-0.094-0.117-0.141c-0.005,0.004-0.011,0.008-0.016,0.012v0.256c0,0,0.001,0.001,0.001,0.001 C0.049,193.324,0.131,193.284,0.134,193.239z M0,186.151v0.249c0.032-0.094,0.064-0.188,0.096-0.282 C0.064,186.129,0.032,186.14,0,186.151z M0.142,185.432c-0.042-0.047-0.083-0.13-0.128-0.132c-0.004,0-0.01,0.006-0.014,0.007v0.252 c0,0,0,0,0,0C0.048,185.517,0.095,185.474,0.142,185.432z M0,176.783v0.238c0.031-0.09,0.063-0.181,0.094-0.272L0,176.783z M0.134,179.966c0.002-0.045-0.075-0.094-0.117-0.141c-0.005,0.004-0.011,0.008-0.016,0.012v0.256c0,0,0.001,0.001,0.001,0.001 C0.049,180.052,0.131,180.011,0.134,179.966z M0.142,182.31c-0.042-0.047-0.085-0.095-0.127-0.142 c-0.004,0.004-0.01,0.008-0.015,0.011v0.258l0,0C0.048,182.395,0.095,182.353,0.142,182.31z M0.143,40.996 c-0.042-0.047-0.083-0.13-0.128-0.132c-0.005,0-0.01,0.008-0.016,0.009v0.238c0.001,0,0.001,0.002,0.002,0.002 C0.047,41.116,0.096,41.039,0.143,40.996z M4.781,167.554c-0.048-0.139-0.097-0.278-0.145-0.417 c-0.091,0.091-0.182,0.183-0.271,0.275C4.503,167.459,4.642,167.507,4.781,167.554z M4.747,193.294 c0.002,0.221,0.005,0.442,0.007,0.663c0.09-0.092,0.181-0.183,0.272-0.275l0.016-0.129C4.943,193.468,4.845,193.381,4.747,193.294z M5.075,200.394c0.047-0.042,0.095-0.085,0.142-0.127c-0.042-0.047-0.083-0.13-0.128-0.132c-0.045-0.002-0.129,0.073-0.131,0.118 S5.033,200.346,5.075,200.394z M4.686,191.805c0.047-0.042,0.129-0.083,0.132-0.128s-0.075-0.094-0.117-0.141 c-0.047,0.042-0.13,0.083-0.132,0.128C4.566,191.709,4.644,191.758,4.686,191.805z M5.026,193.683 c-0.091,0.091-0.182,0.183-0.271,0.275c0.139,0.047,0.278,0.094,0.417,0.142C5.123,193.96,5.074,193.822,5.026,193.683z M4.641,198.746c0.078-0.059,0.213-0.111,0.221-0.178c0.012-0.099-0.067-0.208-0.112-0.325c-0.086,0.069-0.22,0.126-0.226,0.193 C4.515,198.535,4.597,198.643,4.641,198.746z M4.363,167.413c0.09-0.092,0.181-0.184,0.272-0.275 c-0.14-0.048-0.28-0.097-0.421-0.145L4.363,167.413z M4.701,204.448c-0.068,0.103-0.178,0.197-0.18,0.293 c-0.002,0.098,0.104,0.197,0.164,0.295c0.064-0.094,0.176-0.187,0.179-0.283C4.867,204.656,4.763,204.555,4.701,204.448z M4.567,208.842c-0.002,0.045,0.075,0.094,0.117,0.141l0.142-0.127l-0.127-0.142C4.652,208.756,4.57,208.797,4.567,208.842z M4.747,193.294c0.098,0.087,0.196,0.174,0.294,0.26c0.04-0.14,0.08-0.281,0.12-0.421L4.747,193.294z M3.265,213.54 c-0.042-0.047-0.085-0.095-0.127-0.142c-0.047,0.042-0.129,0.083-0.132,0.128c-0.002,0.045,0.075,0.094,0.117,0.141 C3.171,213.625,3.218,213.582,3.265,213.54z M5.046,188.002c-0.231,0.203-0.462,0.407-0.693,0.61c0,0,0,0,0,0 c-0.003,0.346-0.007,0.692-0.01,1.038c0.099-0.087,0.197-0.173,0.296-0.26c0.004-0.173,0.007-0.346,0.011-0.519 C4.782,188.581,4.914,188.291,5.046,188.002z M1.055,173.317c-0.002,0.045,0.075,0.094,0.117,0.141 c0.047-0.042,0.129-0.083,0.132-0.128c0.003-0.045-0.075-0.094-0.117-0.141C1.14,173.231,1.058,173.272,1.055,173.317z M5.09,187.243c-0.047,0.042-0.129,0.083-0.132,0.128c-0.003,0.045,0.075,0.094,0.117,0.141c0.047-0.042,0.095-0.085,0.142-0.127 C5.174,187.338,5.132,187.291,5.09,187.243z M1.13,170.93c-0.044,0.104-0.128,0.21-0.12,0.31c0.005,0.068,0.138,0.126,0.223,0.197 c0.046-0.117,0.127-0.226,0.116-0.325C1.342,171.044,1.208,170.99,1.13,170.93z M4.958,181.516 c-0.003,0.045,0.075,0.094,0.117,0.141c0.047-0.042,0.095-0.085,0.142-0.127c-0.042-0.047-0.085-0.095-0.127-0.142 C5.042,181.43,4.96,181.471,4.958,181.516z M4.639,189.39c-0.099,0.087-0.197,0.174-0.296,0.26c0,0,0.004,0.135,0.004,0.135 c0.097,0.088,0.195,0.176,0.292,0.264C4.639,189.829,4.639,189.609,4.639,189.39z M4.347,189.785 c-0.036,0.266-0.072,0.531-0.109,0.797c0.134-0.177,0.267-0.355,0.401-0.532C4.542,189.961,4.445,189.873,4.347,189.785z M2.269,217.494c0.267-0.037,0.534-0.073,0.801-0.11c0.049-0.265,0.098-0.529,0.147-0.794c-0.136,0.165-0.272,0.331-0.408,0.496 L2.269,217.494z M0.274,76.895c-0.002,0.045,0.075,0.094,0.117,0.141c0.047-0.042,0.129-0.083,0.132-0.128 c0.003-0.045-0.075-0.094-0.118-0.141C0.359,76.81,0.277,76.85,0.274,76.895z M4.7,154.072c-0.045-0.002-0.094,0.075-0.141,0.118 c0.042,0.047,0.083,0.129,0.128,0.132c0.045,0.003,0.094-0.075,0.141-0.118C4.785,154.156,4.745,154.074,4.7,154.072z M0.797,75.987 c-0.047,0.042-0.13,0.083-0.132,0.128c-0.002,0.045,0.075,0.094,0.117,0.141c0.047-0.042,0.129-0.083,0.132-0.128 C0.917,76.083,0.839,76.034,0.797,75.987z M1.173,78.98c0.045,0.003,0.094-0.075,0.141-0.117c-0.042-0.047-0.083-0.13-0.128-0.132 c-0.045-0.002-0.094,0.075-0.141,0.117C1.088,78.895,1.128,78.977,1.173,78.98z M0.528,67.312c0.099,0.012,0.209-0.067,0.325-0.112 c-0.069-0.086-0.126-0.219-0.193-0.225c-0.099-0.009-0.207,0.073-0.31,0.117C0.409,67.169,0.461,67.304,0.528,67.312z M0.274,64.794 c-0.002,0.045,0.075,0.094,0.117,0.141c0.047-0.042,0.129-0.083,0.132-0.128c0.003-0.045-0.075-0.094-0.118-0.141 C0.359,64.708,0.277,64.749,0.274,64.794z M0.392,66.106c0.047-0.042,0.129-0.083,0.132-0.128c0.003-0.045-0.075-0.094-0.118-0.141 c-0.047,0.042-0.13,0.083-0.132,0.128C0.272,66.01,0.35,66.059,0.392,66.106z M3.076,83.482c0.048-0.14,0.096-0.281,0.143-0.421 c-0.14,0.048-0.281,0.095-0.421,0.143h0c-0.126,0.125-0.252,0.251-0.378,0.376h0c0,0-0.134,0.006-0.134,0.006 c-0.138-0.048-0.275-0.096-0.413-0.144c0.042,0.138,0.083,0.277,0.125,0.416l0,0c0,0,0.018,0.127,0.018,0.127 c0.093,0.093,0.185,0.185,0.278,0.277c0.129-0.129,0.258-0.259,0.387-0.389C2.814,83.743,2.945,83.612,3.076,83.482z M1.122,73.839 c-0.266-0.043-0.531-0.087-0.797-0.13l0.525,0.405l0,0c0.139,0.047,0.278,0.094,0.417,0.142C1.219,74.117,1.17,73.978,1.122,73.839z M0.665,78.066c-0.002,0.045,0.075,0.094,0.117,0.142c0.047-0.042,0.129-0.083,0.132-0.128c0.002-0.045-0.075-0.094-0.117-0.141 C0.75,77.981,0.667,78.022,0.665,78.066z M4.701,154.841c-0.047,0.042-0.13,0.083-0.132,0.128c-0.002,0.045,0.075,0.094,0.117,0.141 c0.047-0.042,0.129-0.083,0.132-0.128C4.82,154.938,4.743,154.888,4.701,154.841z M3.852,84.262c0.043-0.266,0.087-0.531,0.13-0.797 c-0.135,0.175-0.27,0.35-0.405,0.525l0,0c-0.047,0.139-0.094,0.278-0.142,0.417C3.575,84.359,3.713,84.311,3.852,84.262z M4.569,157.702c-0.002,0.045,0.075,0.094,0.117,0.141c0.047-0.042,0.129-0.083,0.132-0.128c0.003-0.045-0.075-0.094-0.117-0.141 C4.653,157.616,4.571,157.657,4.569,157.702z M3.516,80.932c0.045,0.002,0.094-0.075,0.141-0.117 c-0.042-0.047-0.083-0.13-0.128-0.132C3.484,80.68,3.435,80.757,3.388,80.8C3.43,80.847,3.471,80.929,3.516,80.932z M3.65,74.339 c0.099,0.009,0.207-0.073,0.31-0.117c-0.059-0.078-0.111-0.213-0.178-0.22c-0.099-0.012-0.208,0.067-0.325,0.112 C3.526,74.2,3.582,74.333,3.65,74.339z M3.516,75.466c0.045,0.002,0.094-0.075,0.141-0.118c-0.042-0.047-0.083-0.13-0.128-0.132 c-0.045-0.002-0.094,0.075-0.141,0.118C3.43,75.382,3.471,75.464,3.516,75.466z M1.905,84.653c0.13-0.13,0.26-0.26,0.39-0.391 c-0.093-0.093-0.185-0.185-0.278-0.277c-0.13,0.13-0.26,0.26-0.391,0.39h0c-0.13,0.132-0.261,0.264-0.391,0.396c0,0,0,0,0,0 c-0.047,0.139-0.094,0.278-0.142,0.417c0.139-0.048,0.278-0.097,0.417-0.145C1.642,84.913,1.773,84.783,1.905,84.653z M3.514,77.817 c0.047-0.042,0.095-0.085,0.142-0.127c-0.043-0.047-0.083-0.129-0.128-0.132c-0.045-0.002-0.094,0.075-0.141,0.118 C3.429,77.723,3.471,77.77,3.514,77.817z M1.619,99.596c0.048-0.102,0.095-0.204,0.144-0.31c-0.086-0.064-0.164-0.123-0.242-0.182 c-0.044,0.104-0.128,0.21-0.12,0.31C1.406,99.48,1.541,99.536,1.619,99.596z M1.954,100.45c0.045,0.002,0.094-0.075,0.141-0.118 c-0.042-0.047-0.083-0.13-0.128-0.132c-0.045-0.002-0.094,0.075-0.141,0.117C1.868,100.365,1.909,100.448,1.954,100.45z M1.704,116.727c-0.042-0.047-0.083-0.129-0.128-0.132c-0.045-0.002-0.094,0.075-0.141,0.118c0.042,0.047,0.085,0.094,0.127,0.142 C1.609,116.812,1.656,116.769,1.704,116.727z M1.836,119.055c-0.002,0.045,0.075,0.094,0.117,0.142 c0.047-0.042,0.129-0.083,0.132-0.128c0.003-0.045-0.075-0.094-0.117-0.141C1.921,118.97,1.838,119.01,1.836,119.055z M2.829,89.48 c-0.048-0.139-0.097-0.278-0.145-0.417c-0.091,0.091-0.182,0.183-0.271,0.275C2.551,89.385,2.69,89.433,2.829,89.48z M2.085,108.138 c0.003-0.045-0.075-0.094-0.117-0.141c-0.047,0.042-0.13,0.083-0.132,0.128c-0.002,0.045,0.075,0.094,0.117,0.141 C2.001,108.224,2.083,108.183,2.085,108.138z M1.952,110.567c0.064-0.094,0.176-0.187,0.179-0.283 c0.003-0.097-0.101-0.198-0.163-0.305c-0.068,0.103-0.178,0.197-0.18,0.293C1.787,110.369,1.893,110.468,1.952,110.567z M2.095,94.087c-0.042-0.047-0.083-0.13-0.128-0.132c-0.045-0.002-0.094,0.075-0.141,0.118c0.042,0.047,0.083,0.129,0.128,0.132 C1.999,94.207,2.048,94.129,2.095,94.087z M1.313,169.428c-0.042-0.047-0.085-0.095-0.127-0.142 c-0.047,0.042-0.129,0.083-0.132,0.128s0.075,0.094,0.117,0.141L1.313,169.428z M2.412,89.339c0.09-0.092,0.181-0.184,0.272-0.275 c-0.14-0.048-0.28-0.097-0.421-0.145L2.412,89.339z M1.627,122.516c0.047-0.047,0.093-0.094,0.139-0.14 C1.72,122.422,1.674,122.47,1.627,122.516c0.111,0.197,0.223,0.394,0.334,0.591c0.111-0.198,0.222-0.395,0.333-0.593l0,0 c0.047-0.139,0.095-0.278,0.142-0.417c-0.139,0.048-0.278,0.097-0.417,0.145l-0.121-0.002l0,0c-0.139-0.047-0.278-0.094-0.417-0.142 C1.53,122.239,1.579,122.377,1.627,122.516z M2.987,99.961c0.049,0.036,0.284-0.066,0.282-0.088 c-0.02-0.168-0.028-0.407-0.135-0.475c-0.104-0.066-0.32,0.044-0.568,0.093C2.743,99.697,2.846,99.855,2.987,99.961z M2.866,95.256 c0.003-0.045-0.075-0.094-0.118-0.141c-0.047,0.042-0.13,0.083-0.132,0.128c-0.002,0.045,0.075,0.094,0.117,0.141 C2.781,95.341,2.864,95.301,2.866,95.256z M3.905,118.416c0.047-0.042,0.129-0.083,0.132-0.128c0.003-0.045-0.075-0.094-0.117-0.141 c-0.047,0.042-0.13,0.083-0.132,0.128C3.786,118.32,3.863,118.369,3.905,118.416z M2.875,85.107 c-0.042-0.047-0.083-0.129-0.128-0.132c-0.045-0.002-0.094,0.075-0.141,0.118c0.042,0.047,0.085,0.094,0.127,0.142 C2.78,85.192,2.828,85.149,2.875,85.107z M2.733,96.165c0.047-0.042,0.095-0.085,0.142-0.127c-0.042-0.047-0.083-0.129-0.128-0.132 c-0.045-0.002-0.094,0.075-0.141,0.118C2.648,96.07,2.69,96.117,2.733,96.165z M2.344,104.354c0.045,0.002,0.094-0.075,0.141-0.118 c-0.042-0.047-0.083-0.129-0.128-0.132c-0.045-0.002-0.094,0.075-0.141,0.118C2.259,104.269,2.299,104.351,2.344,104.354z M2.406,91.407c0.092,0.09,0.184,0.181,0.275,0.272c0.048-0.14,0.097-0.281,0.145-0.421C2.686,91.308,2.546,91.358,2.406,91.407z M2.265,91.825c0.139-0.049,0.278-0.097,0.416-0.145c-0.091-0.091-0.183-0.182-0.275-0.272C2.359,91.547,2.312,91.686,2.265,91.825z M1.952,109.438c0.047-0.042,0.094-0.085,0.142-0.127c-0.042-0.047-0.085-0.094-0.127-0.142c-0.047,0.042-0.129,0.083-0.132,0.128 C1.832,109.342,1.91,109.391,1.952,109.438z M1.313,120.241c-0.042-0.047-0.085-0.094-0.127-0.142 c-0.047,0.042-0.129,0.083-0.132,0.128c-0.003,0.045,0.075,0.094,0.117,0.141L1.313,120.241z M1.171,127.004 c0.047-0.042,0.095-0.085,0.142-0.127c-0.043-0.047-0.083-0.129-0.128-0.132c-0.045-0.002-0.094,0.075-0.141,0.118 C1.087,126.909,1.129,126.957,1.171,127.004z M1.045,135.451c0.042,0.047,0.083,0.129,0.128,0.132 c0.045,0.003,0.094-0.075,0.141-0.117c-0.042-0.047-0.083-0.13-0.128-0.132C1.142,135.332,1.093,135.409,1.045,135.451z M1.925,115.392c-0.243-0.132-0.37-0.249-0.502-0.255c-0.087-0.004-0.266,0.162-0.256,0.231c0.019,0.133,0.143,0.25,0.223,0.374 C1.528,115.653,1.665,115.563,1.925,115.392z M1.662,137.028c-0.094-0.064-0.187-0.177-0.283-0.179 c-0.097-0.002-0.196,0.104-0.294,0.163c0.093,0.066,0.185,0.132,0.281,0.201C1.468,137.149,1.565,137.089,1.662,137.028z M1.64,162.71c-0.135,0.175-0.27,0.35-0.405,0.525c0,0,0,0,0,0c-0.047,0.139-0.094,0.278-0.142,0.417 c0.139-0.048,0.278-0.097,0.417-0.145C1.553,163.242,1.597,162.976,1.64,162.71z M1.171,154.72c0.047-0.042,0.095-0.085,0.142-0.127 c-0.043-0.047-0.083-0.129-0.128-0.132c-0.045-0.002-0.129,0.073-0.131,0.118C1.052,154.624,1.129,154.673,1.171,154.72z M2.032,156.075c-0.266,0.045-0.531,0.089-0.797,0.134l0,0c-0.047,0.139-0.094,0.278-0.142,0.417 c0.139-0.048,0.278-0.097,0.417-0.146C1.684,156.345,1.858,156.21,2.032,156.075z M1.054,157.313 c-0.003,0.045,0.075,0.094,0.117,0.141c0.047-0.042,0.095-0.085,0.142-0.127c-0.042-0.047-0.085-0.094-0.127-0.142 C1.139,157.227,1.057,157.268,1.054,157.313z M1.695,93.304c0.003-0.045-0.075-0.094-0.117-0.141 c-0.047,0.042-0.13,0.083-0.132,0.128c-0.002,0.045,0.075,0.094,0.117,0.141C1.61,93.39,1.692,93.349,1.695,93.304z M1.562,113.733 c0.047-0.042,0.094-0.085,0.142-0.128c-0.042-0.047-0.085-0.094-0.127-0.142c-0.047,0.042-0.129,0.083-0.132,0.128 C1.442,113.636,1.519,113.685,1.562,113.733z M1.695,111.651c0.003-0.045-0.075-0.094-0.117-0.141 c-0.047,0.043-0.13,0.083-0.132,0.128c-0.002,0.045,0.075,0.094,0.117,0.141C1.61,111.737,1.692,111.697,1.695,111.651z M0.265,63.624c0.042,0.047,0.083,0.129,0.128,0.132c0.045,0.002,0.094-0.075,0.141-0.118c-0.042-0.047-0.083-0.129-0.128-0.132 C0.361,63.504,0.312,63.581,0.265,63.624z M1.626,105.335c-0.086,0.069-0.22,0.126-0.226,0.193c-0.009,0.099,0.073,0.206,0.117,0.31 c0.078-0.059,0.213-0.111,0.221-0.178C1.75,105.561,1.671,105.451,1.626,105.335z M1.577,76.778 c-0.045-0.002-0.094,0.075-0.141,0.118c0.043,0.047,0.083,0.13,0.128,0.132c0.045,0.003,0.094-0.075,0.141-0.117 C1.662,76.863,1.622,76.781,1.577,76.778z M1.186,109.169c-0.047,0.042-0.129,0.083-0.132,0.128 c-0.003,0.045,0.075,0.094,0.117,0.141c0.047-0.042,0.095-0.085,0.142-0.127C1.271,109.264,1.228,109.217,1.186,109.169z M1.564,95.766c0.045,0.003,0.094-0.075,0.141-0.117c-0.042-0.047-0.083-0.13-0.128-0.132c-0.045-0.002-0.094,0.075-0.141,0.118 C1.478,95.681,1.519,95.763,1.564,95.766z M1.704,101.502c-0.042-0.047-0.083-0.129-0.128-0.132 c-0.045-0.002-0.094,0.075-0.141,0.117c0.042,0.047,0.085,0.094,0.127,0.142C1.609,101.587,1.656,101.545,1.704,101.502z M1.576,86.927c-0.045-0.002-0.094,0.075-0.141,0.118c0.042,0.047,0.085,0.094,0.127,0.142c0.047-0.042,0.095-0.085,0.142-0.127 C1.661,87.011,1.621,86.93,1.576,86.927z M3.137,53.355c-0.045-0.002-0.094,0.075-0.141,0.118c0.042,0.047,0.085,0.094,0.127,0.142 c0.047-0.042,0.095-0.085,0.142-0.127C3.223,53.44,3.182,53.357,3.137,53.355z M2.343,72.353c0.047-0.042,0.094-0.085,0.142-0.127 c-0.042-0.047-0.085-0.095-0.127-0.142c-0.047,0.042-0.129,0.083-0.132,0.128C2.223,72.257,2.3,72.306,2.343,72.353z M1.966,33.446 c-0.045-0.003-0.094,0.075-0.141,0.117c0.043,0.047,0.085,0.095,0.127,0.142C2,33.663,2.047,33.621,2.094,33.578 C2.052,33.531,2.011,33.449,1.966,33.446z M2.996,48.007c0.042,0.047,0.085,0.094,0.127,0.142c0.047-0.042,0.095-0.085,0.142-0.127 c-0.042-0.047-0.083-0.129-0.128-0.132C3.092,47.887,3.043,47.965,2.996,48.007z M1.826,62.452c0.042,0.047,0.083,0.129,0.128,0.132 c0.045,0.002,0.094-0.075,0.141-0.118c-0.042-0.047-0.083-0.13-0.128-0.132C1.922,62.333,1.873,62.41,1.826,62.452z M2.797,12.943 c-0.047,0.139-0.095,0.278-0.142,0.417c0.139-0.049,0.278-0.097,0.417-0.145C2.98,13.124,2.889,13.033,2.797,12.943z M1.836,49.96 c-0.002,0.045,0.075,0.094,0.117,0.141c0.047-0.042,0.129-0.083,0.132-0.128c0.003-0.045-0.075-0.094-0.117-0.141 C1.921,49.874,1.838,49.915,1.836,49.96z M1.967,55.308c-0.045-0.002-0.094,0.075-0.141,0.117c0.042,0.047,0.083,0.13,0.128,0.132 c0.045,0.002,0.094-0.075,0.141-0.117C2.053,55.393,2.012,55.311,1.967,55.308z M3.529,47.11c-0.045-0.002-0.094,0.075-0.141,0.118 c0.042,0.047,0.083,0.129,0.128,0.132c0.045,0.003,0.094-0.075,0.141-0.117C3.614,47.195,3.574,47.113,3.529,47.11z M2.343,61.031 c0.047-0.042,0.095-0.085,0.142-0.127c-0.042-0.047-0.083-0.129-0.128-0.132c-0.045-0.003-0.094,0.075-0.141,0.117 C2.258,60.937,2.3,60.984,2.343,61.031z M3.784,41.991c-0.099-0.009-0.207,0.073-0.31,0.117c0.059,0.078,0.111,0.213,0.178,0.221 c0.099,0.011,0.209-0.067,0.325-0.112C3.907,42.13,3.851,41.997,3.784,41.991z M2.735,33.306c0.045,0.002,0.094-0.075,0.141-0.117 c-0.042-0.047-0.083-0.13-0.128-0.132c-0.045-0.002-0.094,0.075-0.141,0.117C2.649,33.222,2.69,33.304,2.735,33.306z M2.797,12.943 c0.092,0.09,0.184,0.181,0.275,0.272c0.048-0.14,0.097-0.281,0.145-0.421L2.797,12.943z M2.616,42.154 c-0.003,0.045,0.075,0.094,0.117,0.141l0.142-0.127c-0.042-0.047-0.085-0.094-0.127-0.142C2.7,42.068,2.618,42.109,2.616,42.154z M2.299,39.476c0.104,0.045,0.21,0.128,0.31,0.12c0.068-0.005,0.126-0.137,0.198-0.223c-0.117-0.046-0.226-0.126-0.325-0.115 C2.413,39.265,2.359,39.399,2.299,39.476z M3.396,40.983c-0.003,0.045,0.075,0.094,0.117,0.141c0.047-0.042,0.095-0.085,0.142-0.127 c-0.042-0.047-0.085-0.094-0.127-0.142C3.481,40.897,3.399,40.938,3.396,40.983z M2.646,44.104c0.093,0.066,0.185,0.132,0.281,0.201 c0.102-0.064,0.199-0.125,0.296-0.185c-0.094-0.064-0.187-0.177-0.283-0.179C2.844,43.938,2.744,44.045,2.646,44.104z M3.039,45.665 c0.094,0.064,0.187,0.176,0.283,0.179c0.097,0.003,0.198-0.101,0.305-0.163c-0.103-0.068-0.197-0.178-0.293-0.18 C3.237,45.5,3.137,45.606,3.039,45.665z M1.968,43.196c-0.047,0.042-0.13,0.083-0.132,0.128c-0.002,0.045,0.075,0.094,0.117,0.141 c0.047-0.042,0.129-0.083,0.132-0.128C2.088,43.292,2.01,43.243,1.968,43.196z M1.611,24.134c0.136,0.18,0.272,0.36,0.407,0.54 c-0.037-0.267-0.073-0.534-0.11-0.801C1.809,23.96,1.71,24.047,1.611,24.134z M2.344,19.644c0.045,0.002,0.094-0.075,0.141-0.118 c-0.042-0.047-0.083-0.13-0.128-0.132c-0.045-0.002-0.094,0.075-0.141,0.117C2.259,19.559,2.299,19.641,2.344,19.644z M2.358,11.966 c-0.047,0.042-0.13,0.083-0.132,0.128c-0.002,0.045,0.075,0.094,0.117,0.142c0.047-0.042,0.129-0.083,0.132-0.128 C2.478,12.062,2.401,12.013,2.358,11.966z M1.577,52.966c-0.045-0.002-0.094,0.075-0.141,0.118c0.043,0.047,0.083,0.129,0.128,0.132 c0.045,0.002,0.094-0.075,0.141-0.118C1.662,53.051,1.622,52.968,1.577,52.966z M1.577,63.115c-0.045-0.002-0.094,0.075-0.141,0.118 c0.043,0.047,0.083,0.129,0.128,0.132c0.045,0.002,0.094-0.075,0.141-0.118C1.662,63.2,1.622,63.118,1.577,63.115z M2.749,27.581 c-0.047,0.042-0.13,0.083-0.132,0.128c-0.002,0.045,0.075,0.094,0.117,0.141c0.047-0.042,0.129-0.083,0.132-0.128 C2.869,27.677,2.791,27.628,2.749,27.581z M1.577,69.361c-0.045-0.002-0.094,0.075-0.141,0.117c0.043,0.047,0.083,0.129,0.128,0.132 c0.045,0.003,0.094-0.075,0.141-0.117C1.662,69.446,1.622,69.364,1.577,69.361z M1.577,72.094c-0.045-0.002-0.094,0.075-0.141,0.118 c0.043,0.047,0.083,0.129,0.128,0.132c0.045,0.002,0.094-0.075,0.141-0.118C1.662,72.179,1.622,72.096,1.577,72.094z M1.695,67.149 c0.003-0.045-0.075-0.094-0.117-0.141c-0.047,0.042-0.13,0.083-0.132,0.128c-0.002,0.045,0.075,0.094,0.117,0.141 C1.61,67.235,1.692,67.194,1.695,67.149z M2.344,48.531c0.045,0.002,0.094-0.075,0.141-0.117c-0.042-0.047-0.083-0.13-0.128-0.132 c-0.045-0.002-0.094,0.075-0.141,0.117C2.259,48.446,2.299,48.528,2.344,48.531z M2.225,47.619C2.223,47.663,2.3,47.713,2.343,47.76 c0.047-0.042,0.094-0.085,0.142-0.127c-0.042-0.047-0.085-0.095-0.127-0.142C2.31,47.533,2.228,47.574,2.225,47.619z M2.438,31.705 c-0.049-0.139-0.097-0.278-0.145-0.417c-0.091,0.091-0.182,0.183-0.271,0.275C2.161,31.611,2.3,31.658,2.438,31.705z M2.358,36.961 c-0.045-0.002-0.094,0.075-0.141,0.117c0.042,0.047,0.083,0.13,0.128,0.132c0.045,0.003,0.094-0.075,0.141-0.117 C2.443,37.045,2.403,36.963,2.358,36.961z M2.021,31.564c0.09-0.092,0.181-0.184,0.272-0.275c-0.14-0.048-0.28-0.097-0.421-0.145 C1.922,31.284,1.972,31.424,2.021,31.564z M2.866,28.893c0.003-0.045-0.075-0.094-0.118-0.141c-0.047,0.042-0.13,0.083-0.132,0.128 c-0.002,0.045,0.075,0.094,0.117,0.141C2.781,28.979,2.864,28.938,2.866,28.893z M2.225,52.303 c-0.002,0.045,0.075,0.094,0.117,0.141c0.047-0.042,0.094-0.085,0.142-0.127C2.442,52.27,2.4,52.223,2.357,52.175 C2.31,52.218,2.228,52.258,2.225,52.303z M2.263,26.069l0.149,0.42l0,0c0.139,0.047,0.278,0.094,0.417,0.142 c-0.048-0.139-0.097-0.278-0.145-0.417C2.543,26.166,2.403,26.117,2.263,26.069z M1.966,42.425 c-0.045-0.003-0.094,0.075-0.141,0.118c0.042,0.047,0.085,0.094,0.127,0.141C2,42.641,2.047,42.599,2.094,42.557 C2.052,42.509,2.011,42.427,1.966,42.425z M0.263,54.644c0.042,0.047,0.085,0.094,0.127,0.142c0.047-0.042,0.095-0.085,0.142-0.127 c-0.042-0.047-0.083-0.129-0.128-0.132C0.36,54.524,0.311,54.601,0.263,54.644z M1.186,49.052c-0.047,0.042-0.129,0.083-0.132,0.128 c-0.003,0.045,0.075,0.094,0.118,0.141c0.047-0.042,0.094-0.085,0.142-0.127C1.271,49.147,1.228,49.1,1.186,49.052z M1.305,55.829 c0.003-0.045-0.075-0.094-0.117-0.141c-0.047,0.042-0.13,0.083-0.132,0.128c-0.002,0.045,0.075,0.094,0.117,0.141 C1.22,55.914,1.302,55.874,1.305,55.829z M1.054,72.993c-0.003,0.045,0.075,0.094,0.117,0.141l0.142-0.127 c-0.042-0.047-0.085-0.094-0.127-0.142C1.139,72.907,1.057,72.948,1.054,72.993z M1.187,46.72c-0.045-0.002-0.094,0.075-0.141,0.117 c0.042,0.047,0.083,0.13,0.128,0.132c0.045,0.003,0.094-0.075,0.141-0.117C1.272,46.805,1.231,46.722,1.187,46.72z M1.01,38.384 c-0.009,0.099,0.073,0.207,0.117,0.31c0.078-0.059,0.213-0.111,0.221-0.178c0.012-0.099-0.067-0.209-0.112-0.325 C1.149,38.26,1.016,38.317,1.01,38.384z M1.171,34.488l0.142-0.128c-0.042-0.047-0.085-0.094-0.127-0.142 c-0.047,0.042-0.129,0.083-0.132,0.128C1.052,34.391,1.129,34.44,1.171,34.488z M0.315,33.314l0.809-0.194l0,0 c0.047-0.139,0.094-0.278,0.142-0.417c-0.139,0.048-0.278,0.097-0.416,0.145c-0.214-0.017-0.429-0.033-0.643-0.05L0.315,33.314z M2.607,15.218c0.043,0.047,0.083,0.129,0.128,0.132c0.045,0.002,0.094-0.075,0.141-0.117c-0.042-0.047-0.083-0.13-0.128-0.132 C2.703,15.098,2.654,15.175,2.607,15.218z M1.186,65.057C1.139,65.1,1.057,65.14,1.054,65.186c-0.003,0.045,0.075,0.094,0.117,0.141 c0.047-0.042,0.095-0.085,0.142-0.127C1.271,65.152,1.228,65.105,1.186,65.057z M0.665,71.43c-0.002,0.045,0.075,0.094,0.117,0.141 c0.047-0.042,0.129-0.083,0.132-0.128c0.002-0.045-0.075-0.094-0.117-0.141C0.75,71.345,0.667,71.385,0.665,71.43z M0.728,51.194 c-0.09,0.092-0.181,0.183-0.272,0.275c0.14,0.048,0.28,0.097,0.421,0.145C0.827,51.474,0.777,51.334,0.728,51.194z M0.456,51.469 c0.091-0.091,0.182-0.183,0.271-0.275c-0.139-0.047-0.278-0.095-0.417-0.142C0.359,51.191,0.408,51.33,0.456,51.469z M0.406,39.303 c-0.045-0.002-0.094,0.075-0.141,0.117c0.042,0.047,0.083,0.13,0.128,0.132c0.045,0.003,0.094-0.075,0.141-0.118 C0.491,39.388,0.451,39.305,0.406,39.303z M0.448,52.751c0.048-0.102,0.095-0.204,0.144-0.31c-0.086-0.064-0.164-0.123-0.242-0.182 c-0.045,0.104-0.128,0.21-0.12,0.31C0.234,52.635,0.37,52.691,0.448,52.751z M0.797,70.131c-0.047,0.042-0.13,0.083-0.132,0.128 C0.663,70.304,0.74,70.353,0.782,70.4c0.047-0.043,0.129-0.083,0.132-0.128C0.917,70.228,0.839,70.178,0.797,70.131z M0.796,68.961 c-0.047,0.042-0.129,0.083-0.132,0.128c-0.002,0.045,0.075,0.094,0.117,0.141c0.047-0.042,0.094-0.085,0.142-0.127 C0.88,69.056,0.838,69.008,0.796,68.961z M0.781,44.247l0.142-0.127c-0.042-0.047-0.085-0.095-0.127-0.142 c-0.047,0.042-0.129,0.083-0.132,0.128C0.661,44.15,0.739,44.199,0.781,44.247z M0.393,15.349c0.045,0.002,0.094-0.075,0.141-0.117 c-0.042-0.047-0.083-0.13-0.128-0.132c-0.045-0.002-0.094,0.075-0.141,0.117C0.307,15.265,0.348,15.347,0.393,15.349z M0.923,43.339 c-0.042-0.047-0.085-0.095-0.127-0.142c-0.047,0.042-0.129,0.083-0.132,0.128c-0.002,0.045,0.075,0.094,0.117,0.141L0.923,43.339z M2.484,8.985C2.442,8.938,2.401,8.855,2.356,8.853C2.312,8.85,2.262,8.928,2.215,8.97C2.258,9.018,2.3,9.065,2.343,9.112 C2.39,9.07,2.437,9.027,2.484,8.985z M0.391,13.798l0.142-0.127c-0.042-0.047-0.085-0.094-0.127-0.142 c-0.047,0.042-0.129,0.083-0.132,0.128C0.271,13.701,0.348,13.751,0.391,13.798z M2.519,10.02C2.531,9.92,2.452,9.811,2.407,9.694 C2.321,9.763,2.187,9.82,2.182,9.887c-0.009,0.099,0.073,0.207,0.117,0.311C2.376,10.139,2.511,10.087,2.519,10.02z M1.24,3.457 L1.24,3.457c0.14,0.047,0.278,0.094,0.417,0.141C1.609,3.46,1.561,3.321,1.512,3.182c-0.14-0.049-0.28-0.097-0.421-0.145 C1.141,3.177,1.191,3.317,1.24,3.457z M1.577,6.512C1.532,6.51,1.483,6.587,1.436,6.629c0.043,0.047,0.083,0.129,0.128,0.132 c0.045,0.002,0.094-0.075,0.141-0.118C1.662,6.596,1.622,6.514,1.577,6.512z M3.138,11.967c-0.047,0.042-0.129,0.083-0.132,0.128 c-0.002,0.045,0.075,0.094,0.117,0.141c0.047-0.042,0.094-0.085,0.142-0.127C3.223,12.062,3.18,12.015,3.138,11.967z M2.747,7.291 C2.702,7.289,2.653,7.366,2.606,7.409C2.648,7.456,2.69,7.503,2.733,7.551C2.78,7.508,2.828,7.466,2.875,7.423 C2.832,7.376,2.792,7.294,2.747,7.291z M2.343,4.429C2.39,4.386,2.437,4.344,2.484,4.302C2.442,4.254,2.4,4.207,2.357,4.16 C2.31,4.202,2.228,4.243,2.225,4.288C2.223,4.333,2.3,4.382,2.343,4.429z M3.125,6.761C3.17,6.764,3.219,6.686,3.266,6.644 c-0.042-0.047-0.083-0.13-0.128-0.132C3.094,6.51,3.044,6.587,2.997,6.629C3.04,6.677,3.08,6.759,3.125,6.761z M1.954,22.376 c0.045,0.002,0.094-0.075,0.141-0.118c-0.042-0.047-0.083-0.13-0.128-0.132c-0.045-0.002-0.094,0.075-0.141,0.117 C1.868,22.291,1.909,22.373,1.954,22.376z M1.267,1.647C1.219,1.508,1.17,1.369,1.122,1.23C1.031,1.322,0.94,1.413,0.85,1.505 C0.99,1.552,1.128,1.6,1.267,1.647z M1.122,1.23c-0.14-0.048-0.28-0.097-0.421-0.145l0.149,0.42C0.94,1.413,1.031,1.322,1.122,1.23z M0.782,10.283c0.047-0.042,0.129-0.083,0.132-0.128c0.002-0.045-0.075-0.094-0.117-0.141c-0.047,0.042-0.13,0.083-0.132,0.128 C0.663,10.187,0.74,10.236,0.782,10.283z M1.807,10.91c-0.635,0.03-0.84-0.002-1.012,0.06c-0.153,0.055-0.269,0.214-0.401,0.327 c0.184,0.09,0.378,0.268,0.548,0.248C1.123,11.522,1.28,11.312,1.807,10.91z M1.171,9.502C1.219,9.46,1.266,9.418,1.313,9.375 C1.271,9.328,1.23,9.246,1.185,9.243C1.141,9.241,1.091,9.318,1.044,9.361C1.087,9.408,1.129,9.455,1.171,9.502z M1.313,5.082 C1.271,5.035,1.228,4.988,1.186,4.94C1.139,4.983,1.057,5.023,1.054,5.068S1.129,5.162,1.171,5.21L1.313,5.082z M1.305,8.203 C1.307,8.159,1.23,8.109,1.187,8.062C1.14,8.105,1.057,8.145,1.055,8.19C1.053,8.235,1.13,8.284,1.173,8.331 C1.22,8.289,1.302,8.248,1.305,8.203z M1.185,5.73C1.141,5.728,1.091,5.805,1.044,5.847c0.042,0.047,0.085,0.094,0.127,0.142 c0.047-0.042,0.095-0.085,0.142-0.127C1.271,5.814,1.23,5.732,1.185,5.73z" fill="#4759A1"/></g></svg>